STARTFONT 2.1
COMMENT
COMMENT Converted from OpenType font "ChivoMono-Regular.ttf" by "otf2bdf 3.0".
COMMENT
FONT -FreeType-chivo mono-Medium-R-Normal--19-140-100-100-P-93-ISO10646-1
SIZE 14 100 100
FONTBOUNDINGBOX 14 27 -1 -6
STARTPROPERTIES 19
FOUNDRY "FreeType"
FAMILY_NAME "chivo mono"
WEIGHT_NAME "Medium"
SLANT "R"
SETWIDTH_NAME "Normal"
ADD_STYLE_NAME ""
PIXEL_SIZE 19
POINT_SIZE 140
RESOLUTION_X 100
RESOLUTION_Y 100
SPACING "P"
AVERAGE_WIDTH 93
CHARSET_REGISTRY "ISO10646"
CHARSET_ENCODING "1"
FONT_ASCENT 17
FONT_DESCENT 4
COPYRIGHT "Copyright 2018 The Chivo Project Authors (https://github.com/Omnibus-Type/Chivo)"
_OTF_FONTFILE "ChivoMono-Regular.ttf"
_OTF_PSNAME "ChivoMono-Regular"
ENDPROPERTIES
CHARS 642
STARTCHAR 000D
ENCODING 13
SWIDTH 617 0
DWIDTH 12 0
BBX 0 0 0 0
BITMAP
ENDCHAR
STARTCHAR 0020
ENCODING 32
SWIDTH 617 0
DWIDTH 12 0
BBX 0 0 0 0
BITMAP
ENDCHAR
STARTCHAR 0021
ENCODING 33
SWIDTH 617 0
DWIDTH 12 0
BBX 2 13 5 0
BITMAP
C0
C0
C0
C0
C0
C0
C0
C0
C0
00
00
C0
C0
ENDCHAR
STARTCHAR 0022
ENCODING 34
SWIDTH 617 0
DWIDTH 12 0
BBX 4 5 4 8
BITMAP
B0
B0
B0
90
90
ENDCHAR
STARTCHAR 0023
ENCODING 35
SWIDTH 617 0
DWIDTH 12 0
BBX 12 14 0 0
BITMAP
0440
0C40
0CC0
08C0
0880
7FF0
1880
1180
1180
FFE0
3100
3300
2300
2300
ENDCHAR
STARTCHAR 0024
ENCODING 36
SWIDTH 617 0
DWIDTH 12 0
BBX 10 16 1 -1
BITMAP
0800
0800
3F00
7380
C180
C080
E000
7E00
1F80
01C0
00C0
C0C0
C180
7F80
1C00
0800
ENDCHAR
STARTCHAR 0025
ENCODING 37
SWIDTH 617 0
DWIDTH 12 0
BBX 12 13 0 0
BITMAP
7030
8840
8880
8980
8B00
F000
00C0
01A0
0930
1130
2130
6130
C0E0
ENDCHAR
STARTCHAR 0026
ENCODING 38
SWIDTH 617 0
DWIDTH 12 0
BBX 11 14 1 0
BITMAP
0800
7C00
6000
C000
C180
6180
7FE0
3FE0
6180
C180
C180
C180
7F80
3F80
ENDCHAR
STARTCHAR 0027
ENCODING 39
SWIDTH 617 0
DWIDTH 12 0
BBX 2 5 5 8
BITMAP
C0
C0
C0
80
80
ENDCHAR
STARTCHAR 0028
ENCODING 40
SWIDTH 617 0
DWIDTH 12 0
BBX 4 16 4 -3
BITMAP
10
20
60
60
40
C0
C0
C0
C0
C0
C0
40
60
20
20
10
ENDCHAR
STARTCHAR 0029
ENCODING 41
SWIDTH 617 0
DWIDTH 12 0
BBX 5 16 3 -3
BITMAP
C0
60
20
30
30
10
10
18
18
10
10
30
30
20
60
C0
ENDCHAR
STARTCHAR 002A
ENCODING 42
SWIDTH 617 0
DWIDTH 12 0
BBX 8 7 2 6
BITMAP
18
10
D7
3C
38
2C
66
ENDCHAR
STARTCHAR 002B
ENCODING 43
SWIDTH 617 0
DWIDTH 12 0
BBX 10 10 1 0
BITMAP
0C00
0C00
0C00
0C00
FFC0
FFC0
0C00
0C00
0C00
0C00
ENDCHAR
STARTCHAR 002C
ENCODING 44
SWIDTH 617 0
DWIDTH 12 0
BBX 2 6 5 -3
BITMAP
C0
C0
C0
40
C0
80
ENDCHAR
STARTCHAR 002D
ENCODING 45
SWIDTH 617 0
DWIDTH 12 0
BBX 5 2 3 4
BITMAP
F8
F8
ENDCHAR
STARTCHAR 002E
ENCODING 46
SWIDTH 617 0
DWIDTH 12 0
BBX 2 2 5 0
BITMAP
C0
C0
ENDCHAR
STARTCHAR 002F
ENCODING 47
SWIDTH 617 0
DWIDTH 12 0
BBX 11 16 0 -3
BITMAP
0060
0040
00C0
0080
0180
0300
0200
0600
0400
0C00
0800
1800
3000
3000
6000
C000
ENDCHAR
STARTCHAR 0030
ENCODING 48
SWIDTH 617 0
DWIDTH 12 0
BBX 9 14 1 0
BITMAP
0C00
3F00
6380
C180
C180
C180
C180
C180
C180
C180
C180
6180
7380
3E00
ENDCHAR
STARTCHAR 0031
ENCODING 49
SWIDTH 617 0
DWIDTH 12 0
BBX 9 14 2 0
BITMAP
0800
7800
F800
1800
1800
1800
1800
1800
1800
1800
1800
1800
FF80
FF80
ENDCHAR
STARTCHAR 0032
ENCODING 50
SWIDTH 617 0
DWIDTH 12 0
BBX 10 14 1 0
BITMAP
0C00
3F00
6380
C180
C180
0180
0180
0300
0E00
1C00
7000
6000
FFC0
FFC0
ENDCHAR
STARTCHAR 0033
ENCODING 51
SWIDTH 617 0
DWIDTH 12 0
BBX 9 14 1 0
BITMAP
0800
7F00
6380
C180
0180
0180
1F00
1F00
0180
0180
C080
C180
7380
3F00
ENDCHAR
STARTCHAR 0034
ENCODING 52
SWIDTH 617 0
DWIDTH 12 0
BBX 10 14 1 0
BITMAP
0C00
1800
1900
1900
3300
3300
6300
4300
C300
FFC0
FFC0
0300
0300
0300
ENDCHAR
STARTCHAR 0035
ENCODING 53
SWIDTH 617 0
DWIDTH 12 0
BBX 10 13 1 0
BITMAP
7F80
6000
6000
6000
6E00
7F00
6180
0180
00C0
C180
6180
7380
3E00
ENDCHAR
STARTCHAR 0036
ENCODING 54
SWIDTH 617 0
DWIDTH 12 0
BBX 10 14 1 0
BITMAP
0C00
3F00
7380
6180
C080
C000
DF00
E180
E1C0
C0C0
C0C0
6180
7380
3F00
ENDCHAR
STARTCHAR 0037
ENCODING 55
SWIDTH 617 0
DWIDTH 12 0
BBX 10 13 1 0
BITMAP
FFC0
0180
0300
0300
0600
0400
0C00
0C00
1800
1800
1800
1800
3800
ENDCHAR
STARTCHAR 0038
ENCODING 56
SWIDTH 617 0
DWIDTH 12 0
BBX 10 14 1 0
BITMAP
0800
3F00
6180
6180
4180
6180
3F00
3F00
6180
C180
C0C0
C180
6380
3F00
ENDCHAR
STARTCHAR 0039
ENCODING 57
SWIDTH 617 0
DWIDTH 12 0
BBX 9 14 1 0
BITMAP
0800
3F00
6380
C180
C180
C180
C180
7380
3D80
0180
C180
C180
7700
3E00
ENDCHAR
STARTCHAR 003A
ENCODING 58
SWIDTH 617 0
DWIDTH 12 0
BBX 2 10 5 0
BITMAP
C0
C0
00
00
00
00
00
00
C0
C0
ENDCHAR
STARTCHAR 003B
ENCODING 59
SWIDTH 617 0
DWIDTH 12 0
BBX 2 13 5 -3
BITMAP
C0
C0
00
00
00
00
00
C0
C0
C0
40
C0
80
ENDCHAR
STARTCHAR 003C
ENCODING 60
SWIDTH 617 0
DWIDTH 12 0
BBX 10 10 1 0
BITMAP
0040
03C0
0F00
7800
E000
C000
7800
1F00
03C0
0040
ENDCHAR
STARTCHAR 003D
ENCODING 61
SWIDTH 617 0
DWIDTH 12 0
BBX 10 6 1 2
BITMAP
FFC0
FFC0
0000
0000
FFC0
FFC0
ENDCHAR
STARTCHAR 003E
ENCODING 62
SWIDTH 617 0
DWIDTH 12 0
BBX 10 10 1 0
BITMAP
8000
E000
3C00
0F80
01C0
01C0
0780
3C00
F000
8000
ENDCHAR
STARTCHAR 003F
ENCODING 63
SWIDTH 617 0
DWIDTH 12 0
BBX 8 14 2 0
BITMAP
18
7E
C7
C3
83
43
06
0C
18
18
00
00
18
18
ENDCHAR
STARTCHAR 0040
ENCODING 64
SWIDTH 617 0
DWIDTH 12 0
BBX 12 17 0 -3
BITMAP
0600
1980
2040
4020
4F20
99A0
91B0
8190
8790
9D90
91B0
91A0
9BA0
5EE0
4000
2000
1F80
ENDCHAR
STARTCHAR 0041
ENCODING 65
SWIDTH 617 0
DWIDTH 12 0
BBX 11 13 0 0
BITMAP
0E00
0F00
0B00
1B00
1980
1980
3180
30C0
3FC0
7FC0
6060
6060
C060
ENDCHAR
STARTCHAR 0042
ENCODING 66
SWIDTH 617 0
DWIDTH 12 0
BBX 10 13 1 0
BITMAP
FF00
C180
C180
C180
C180
FF00
FF00
C180
C0C0
C0C0
C1C0
FF80
FF00
ENDCHAR
STARTCHAR 0043
ENCODING 67
SWIDTH 617 0
DWIDTH 12 0
BBX 10 14 1 0
BITMAP
0C00
7F00
6180
C180
C0C0
C0C0
C000
C000
C000
C0C0
C0C0
C180
7380
3F00
ENDCHAR
STARTCHAR 0044
ENCODING 68
SWIDTH 617 0
DWIDTH 12 0
BBX 10 13 1 0
BITMAP
FF00
E380
E0C0
E0C0
E0C0
E0C0
E0C0
E0C0
E0C0
E0C0
E1C0
FF80
FF00
ENDCHAR
STARTCHAR 0045
ENCODING 69
SWIDTH 617 0
DWIDTH 12 0
BBX 9 13 2 0
BITMAP
FF00
C000
C000
C000
C000
FF00
FF00
C000
C000
C000
C000
FF00
FF80
ENDCHAR
STARTCHAR 0046
ENCODING 70
SWIDTH 617 0
DWIDTH 12 0
BBX 8 13 2 0
BITMAP
FF
C0
C0
C0
C0
FE
FE
C0
C0
C0
C0
C0
C0
ENDCHAR
STARTCHAR 0047
ENCODING 71
SWIDTH 617 0
DWIDTH 12 0
BBX 10 14 1 0
BITMAP
0C00
7F00
6180
C1C0
C0C0
C000
C000
CFC0
C0C0
C0C0
C0C0
C1C0
73C0
3E40
ENDCHAR
STARTCHAR 0048
ENCODING 72
SWIDTH 617 0
DWIDTH 12 0
BBX 9 13 1 0
BITMAP
C180
C180
C180
C180
C180
FF80
FF80
C180
C180
C180
C180
C180
C180
ENDCHAR
STARTCHAR 0049
ENCODING 73
SWIDTH 617 0
DWIDTH 12 0
BBX 8 13 2 0
BITMAP
FF
18
18
18
18
18
18
18
18
18
18
FF
FF
ENDCHAR
STARTCHAR 004A
ENCODING 74
SWIDTH 617 0
DWIDTH 12 0
BBX 8 13 2 0
BITMAP
03
03
03
03
03
03
03
03
03
C3
C3
EE
7C
ENDCHAR
STARTCHAR 004B
ENCODING 75
SWIDTH 617 0
DWIDTH 12 0
BBX 10 13 1 0
BITMAP
C1C0
C180
C300
C600
CE00
CC00
DC00
FE00
E600
C300
C380
C180
C0C0
ENDCHAR
STARTCHAR 004C
ENCODING 76
SWIDTH 617 0
DWIDTH 12 0
BBX 8 13 2 0
BITMAP
C0
C0
C0
C0
C0
C0
C0
C0
C0
C0
C0
FF
FF
ENDCHAR
STARTCHAR 004D
ENCODING 77
SWIDTH 617 0
DWIDTH 12 0
BBX 10 13 1 0
BITMAP
E1C0
E3C0
E2C0
F2C0
F2C0
F2C0
D2C0
D6C0
D4C0
DCC0
DCC0
CCC0
CCC0
ENDCHAR
STARTCHAR 004E
ENCODING 78
SWIDTH 617 0
DWIDTH 12 0
BBX 9 13 1 0
BITMAP
E180
E180
F180
F180
D980
D980
CD80
CD80
C780
C780
C380
C380
C180
ENDCHAR
STARTCHAR 004F
ENCODING 79
SWIDTH 617 0
DWIDTH 12 0
BBX 10 14 1 0
BITMAP
0C00
7F00
6380
C1C0
C0C0
C0C0
C0C0
C0C0
C0C0
C0C0
C0C0
C180
7380
3F00
ENDCHAR
STARTCHAR 0050
ENCODING 80
SWIDTH 617 0
DWIDTH 12 0
BBX 10 13 1 0
BITMAP
FF80
C1C0
C0C0
C0C0
C0C0
C1C0
FF80
C000
C000
C000
C000
C000
C000
ENDCHAR
STARTCHAR 0051
ENCODING 81
SWIDTH 617 0
DWIDTH 12 0
BBX 10 17 1 -3
BITMAP
0C00
7F00
6380
C1C0
C0C0
C0C0
C0C0
C0C0
C0C0
C0C0
C0C0
C180
7380
3F00
0C00
07C0
03C0
ENDCHAR
STARTCHAR 0052
ENCODING 82
SWIDTH 617 0
DWIDTH 12 0
BBX 11 13 1 0
BITMAP
FF80
C1C0
C0C0
C0C0
C0C0
C180
FF00
C380
C1C0
C0C0
C0C0
C0C0
C0E0
ENDCHAR
STARTCHAR 0053
ENCODING 83
SWIDTH 617 0
DWIDTH 12 0
BBX 10 14 1 0
BITMAP
0C00
7F00
E180
C0C0
C000
E000
7E00
1F80
03C0
00C0
C0C0
C0C0
FF80
3F00
ENDCHAR
STARTCHAR 0054
ENCODING 84
SWIDTH 617 0
DWIDTH 12 0
BBX 10 13 1 0
BITMAP
FFC0
0C00
0C00
0C00
0C00
0C00
0C00
0C00
0C00
0C00
0C00
0C00
0C00
ENDCHAR
STARTCHAR 0055
ENCODING 85
SWIDTH 617 0
DWIDTH 12 0
BBX 9 13 1 0
BITMAP
C180
C180
C180
C180
C180
C180
C180
C180
C180
C180
6180
7780
3F00
ENDCHAR
STARTCHAR 0056
ENCODING 86
SWIDTH 617 0
DWIDTH 12 0
BBX 11 13 0 0
BITMAP
E060
6060
6040
30C0
30C0
30C0
3180
1980
1980
1B00
0F00
0F00
0E00
ENDCHAR
STARTCHAR 0057
ENCODING 87
SWIDTH 617 0
DWIDTH 12 0
BBX 12 13 0 0
BITMAP
C630
C620
C620
4E60
6F60
6B60
6B60
6940
6940
29C0
39C0
39C0
31C0
ENDCHAR
STARTCHAR 0058
ENCODING 88
SWIDTH 617 0
DWIDTH 12 0
BBX 11 13 0 0
BITMAP
60E0
30C0
3980
1980
0F00
0E00
0E00
0F00
1B80
3180
30C0
60E0
E060
ENDCHAR
STARTCHAR 0059
ENCODING 89
SWIDTH 617 0
DWIDTH 12 0
BBX 11 13 0 0
BITMAP
E060
70C0
30C0
3980
1980
1F00
0F00
0600
0600
0600
0600
0600
0600
ENDCHAR
STARTCHAR 005A
ENCODING 90
SWIDTH 617 0
DWIDTH 12 0
BBX 10 13 1 0
BITMAP
FFC0
0180
0300
0700
0600
0C00
1C00
1800
3800
3000
6000
FFC0
FFC0
ENDCHAR
STARTCHAR 005B
ENCODING 91
SWIDTH 617 0
DWIDTH 12 0
BBX 4 16 5 -3
BITMAP
F0
80
80
80
80
80
80
80
80
80
80
80
80
80
80
F0
ENDCHAR
STARTCHAR 005C
ENCODING 92
SWIDTH 617 0
DWIDTH 12 0
BBX 11 16 0 -3
BITMAP
C000
6000
3000
3000
1800
0800
0C00
0400
0600
0200
0300
0180
0080
00C0
0040
0060
ENDCHAR
STARTCHAR 005D
ENCODING 93
SWIDTH 617 0
DWIDTH 12 0
BBX 4 16 3 -3
BITMAP
F0
30
30
30
30
30
30
30
30
30
30
30
30
30
30
F0
ENDCHAR
STARTCHAR 005E
ENCODING 94
SWIDTH 617 0
DWIDTH 12 0
BBX 10 10 1 0
BITMAP
0C00
1C00
1E00
3200
3300
2300
6100
6180
4180
C0C0
ENDCHAR
STARTCHAR 005F
ENCODING 95
SWIDTH 617 0
DWIDTH 12 0
BBX 10 2 1 -3
BITMAP
FFC0
FFC0
ENDCHAR
STARTCHAR 0060
ENCODING 96
SWIDTH 617 0
DWIDTH 12 0
BBX 3 4 4 11
BITMAP
C0
40
60
20
ENDCHAR
STARTCHAR 0061
ENCODING 97
SWIDTH 617 0
DWIDTH 12 0
BBX 10 10 1 0
BITMAP
3E00
6300
4180
0180
1F80
7180
C180
C380
E780
7DC0
ENDCHAR
STARTCHAR 0062
ENCODING 98
SWIDTH 617 0
DWIDTH 12 0
BBX 9 14 2 0
BITMAP
C000
C000
C000
C000
FE00
E700
C300
C100
C180
C180
C100
C300
E700
BE00
ENDCHAR
STARTCHAR 0063
ENCODING 99
SWIDTH 617 0
DWIDTH 12 0
BBX 9 10 1 0
BITMAP
3E00
7300
6180
C180
C000
C000
C180
6180
7300
3E00
ENDCHAR
STARTCHAR 0064
ENCODING 100
SWIDTH 617 0
DWIDTH 12 0
BBX 9 14 1 0
BITMAP
0180
0180
0180
0180
3D80
6380
4180
C180
C180
C180
C180
C180
6380
3D80
ENDCHAR
STARTCHAR 0065
ENCODING 101
SWIDTH 617 0
DWIDTH 12 0
BBX 9 10 1 0
BITMAP
3E00
7300
6180
C180
FF80
C000
C180
6180
7380
3F00
ENDCHAR
STARTCHAR 0066
ENCODING 102
SWIDTH 617 0
DWIDTH 12 0
BBX 9 14 2 0
BITMAP
0F80
1880
3000
3000
FF00
FF00
3000
3000
3000
3000
3000
3000
FF00
FF00
ENDCHAR
STARTCHAR 0067
ENCODING 103
SWIDTH 617 0
DWIDTH 12 0
BBX 10 16 1 -4
BITMAP
00C0
00C0
3F80
6380
6180
6180
6180
3F00
6000
4000
7F80
7FC0
C0C0
C0C0
FFC0
3F00
ENDCHAR
STARTCHAR 0068
ENCODING 104
SWIDTH 617 0
DWIDTH 12 0
BBX 8 14 2 0
BITMAP
C0
C0
C0
C0
FE
E7
C3
C3
C3
C3
C3
C3
C3
C3
ENDCHAR
STARTCHAR 0069
ENCODING 105
SWIDTH 617 0
DWIDTH 12 0
BBX 9 14 2 0
BITMAP
1800
1800
0000
0000
F800
F800
1800
1800
1800
1800
1800
1800
FF80
FF80
ENDCHAR
STARTCHAR 006A
ENCODING 106
SWIDTH 617 0
DWIDTH 12 0
BBX 5 18 2 -4
BITMAP
18
18
00
00
F8
F8
18
18
18
18
18
18
18
18
18
18
F8
60
ENDCHAR
STARTCHAR 006B
ENCODING 107
SWIDTH 617 0
DWIDTH 12 0
BBX 9 14 2 0
BITMAP
8000
8000
8000
8000
8300
8600
8C00
9800
B800
F800
FC00
CE00
8600
8380
ENDCHAR
STARTCHAR 006C
ENCODING 108
SWIDTH 617 0
DWIDTH 12 0
BBX 9 14 1 0
BITMAP
FC00
FC00
0C00
0C00
0C00
0C00
0C00
0C00
0C00
0C00
0C00
0C00
FF80
FF80
ENDCHAR
STARTCHAR 006D
ENCODING 109
SWIDTH 617 0
DWIDTH 12 0
BBX 10 10 1 0
BITMAP
BB80
DDC0
CCC0
CCC0
CCC0
CCC0
CCC0
CCC0
CCC0
CCC0
ENDCHAR
STARTCHAR 006E
ENCODING 110
SWIDTH 617 0
DWIDTH 12 0
BBX 8 10 2 0
BITMAP
BE
E7
C3
C3
C3
C3
C3
C3
C3
C3
ENDCHAR
STARTCHAR 006F
ENCODING 111
SWIDTH 617 0
DWIDTH 12 0
BBX 9 10 1 0
BITMAP
3E00
7300
6180
C180
C180
C180
C180
6180
7300
3E00
ENDCHAR
STARTCHAR 0070
ENCODING 112
SWIDTH 617 0
DWIDTH 12 0
BBX 9 14 2 -4
BITMAP
BE00
E700
C300
C100
C180
C180
C100
C300
E700
FE00
C000
C000
C000
C000
ENDCHAR
STARTCHAR 0071
ENCODING 113
SWIDTH 617 0
DWIDTH 12 0
BBX 9 14 1 -4
BITMAP
3D80
6380
4180
C180
C180
C180
C180
C180
6380
3D80
0180
0180
0180
0180
ENDCHAR
STARTCHAR 0072
ENCODING 114
SWIDTH 617 0
DWIDTH 12 0
BBX 10 10 1 0
BITMAP
F780
FDC0
38C0
30C0
3000
3000
3000
3000
FF80
FF80
ENDCHAR
STARTCHAR 0073
ENCODING 115
SWIDTH 617 0
DWIDTH 12 0
BBX 8 10 2 0
BITMAP
7E
C7
C3
C0
FC
1F
03
83
C3
7E
ENDCHAR
STARTCHAR 0074
ENCODING 116
SWIDTH 617 0
DWIDTH 12 0
BBX 9 13 1 0
BITMAP
1800
1800
1800
FF80
FF80
1800
1800
1800
1800
1800
1800
1C80
0F80
ENDCHAR
STARTCHAR 0075
ENCODING 117
SWIDTH 617 0
DWIDTH 12 0
BBX 10 10 1 0
BITMAP
C180
C180
C180
C180
C180
C180
C180
6180
7780
3DC0
ENDCHAR
STARTCHAR 0076
ENCODING 118
SWIDTH 617 0
DWIDTH 12 0
BBX 10 10 1 0
BITMAP
C0C0
E180
6180
6100
3300
3300
3600
1E00
1C00
0C00
ENDCHAR
STARTCHAR 0077
ENCODING 119
SWIDTH 617 0
DWIDTH 12 0
BBX 12 10 0 0
BITMAP
C630
C620
4E20
4F60
6B60
6940
6940
39C0
39C0
31C0
ENDCHAR
STARTCHAR 0078
ENCODING 120
SWIDTH 617 0
DWIDTH 12 0
BBX 10 10 1 0
BITMAP
E180
7300
3300
1E00
1C00
1C00
3E00
3300
6380
E1C0
ENDCHAR
STARTCHAR 0079
ENCODING 121
SWIDTH 617 0
DWIDTH 12 0
BBX 10 14 1 -4
BITMAP
C0C0
6180
6180
6300
3300
3200
1E00
1E00
1C00
0C00
0C00
1800
7000
6000
ENDCHAR
STARTCHAR 007A
ENCODING 122
SWIDTH 617 0
DWIDTH 12 0
BBX 8 10 2 0
BITMAP
FE
06
0C
0C
18
38
30
60
60
FF
ENDCHAR
STARTCHAR 007B
ENCODING 123
SWIDTH 617 0
DWIDTH 12 0
BBX 4 16 4 -3
BITMAP
30
60
60
60
60
60
40
C0
C0
60
60
60
60
60
60
30
ENDCHAR
STARTCHAR 007C
ENCODING 124
SWIDTH 617 0
DWIDTH 12 0
BBX 2 18 5 -4
BITMAP
C0
C0
C0
C0
C0
C0
C0
C0
C0
C0
C0
C0
C0
C0
C0
C0
C0
C0
ENDCHAR
STARTCHAR 007D
ENCODING 125
SWIDTH 617 0
DWIDTH 12 0
BBX 5 16 3 -3
BITMAP
E0
30
30
30
30
30
30
18
18
30
30
30
30
30
30
E0
ENDCHAR
STARTCHAR 007E
ENCODING 126
SWIDTH 617 0
DWIDTH 12 0
BBX 11 3 0 4
BITMAP
7C20
C7E0
8180
ENDCHAR
STARTCHAR 00A0
ENCODING 160
SWIDTH 617 0
DWIDTH 12 0
BBX 0 0 0 0
BITMAP
ENDCHAR
STARTCHAR 00A1
ENCODING 161
SWIDTH 617 0
DWIDTH 12 0
BBX 2 13 5 -3
BITMAP
C0
C0
00
00
C0
C0
C0
C0
C0
C0
C0
C0
C0
ENDCHAR
STARTCHAR 00A2
ENCODING 162
SWIDTH 617 0
DWIDTH 12 0
BBX 9 13 1 0
BITMAP
0C00
1E00
3F00
6180
6180
6000
E000
6080
6180
6180
3F00
0C00
0C00
ENDCHAR
STARTCHAR 00A3
ENCODING 163
SWIDTH 617 0
DWIDTH 12 0
BBX 10 14 1 0
BITMAP
0600
1F80
31C0
30C0
3000
3000
3000
FE00
3000
2000
2000
2000
FF80
FF80
ENDCHAR
STARTCHAR 00A4
ENCODING 164
SWIDTH 617 0
DWIDTH 12 0
BBX 10 10 1 2
BITMAP
0080
FFC0
6180
C080
C0C0
80C0
C0C0
C080
6380
FEC0
ENDCHAR
STARTCHAR 00A5
ENCODING 165
SWIDTH 617 0
DWIDTH 12 0
BBX 11 13 0 0
BITMAP
E060
70C0
30C0
3980
79E0
7FE0
0F00
7FE0
0600
0600
0600
0600
0600
ENDCHAR
STARTCHAR 00A6
ENCODING 166
SWIDTH 617 0
DWIDTH 12 0
BBX 2 18 5 -4
BITMAP
C0
C0
C0
C0
C0
C0
C0
00
00
00
00
C0
C0
C0
C0
C0
C0
C0
ENDCHAR
STARTCHAR 00A7
ENCODING 167
SWIDTH 617 0
DWIDTH 12 0
BBX 8 18 2 -4
BITMAP
10
7E
C3
C3
C0
70
7C
8E
83
C1
E3
3E
0E
07
03
C3
7E
18
ENDCHAR
STARTCHAR 00A8
ENCODING 168
SWIDTH 617 0
DWIDTH 12 0
BBX 6 2 3 12
BITMAP
CC
CC
ENDCHAR
STARTCHAR 00A9
ENCODING 169
SWIDTH 617 0
DWIDTH 12 0
BBX 12 14 0 0
BITMAP
0E00
1180
2040
4E20
99A0
90A0
9010
9010
9090
90A0
5F20
4020
2040
1F80
ENDCHAR
STARTCHAR 00AA
ENCODING 170
SWIDTH 617 0
DWIDTH 12 0
BBX 6 7 3 7
BITMAP
20
D8
08
78
88
98
6C
ENDCHAR
STARTCHAR 00AB
ENCODING 171
SWIDTH 617 0
DWIDTH 12 0
BBX 8 7 2 3
BITMAP
33
66
4C
CC
44
66
33
ENDCHAR
STARTCHAR 00AC
ENCODING 172
SWIDTH 617 0
DWIDTH 12 0
BBX 10 6 1 3
BITMAP
FFC0
FFC0
00C0
00C0
00C0
00C0
ENDCHAR
STARTCHAR 00AD
ENCODING 173
SWIDTH 617 0
DWIDTH 12 0
BBX 5 2 3 4
BITMAP
F8
F8
ENDCHAR
STARTCHAR 00AE
ENCODING 174
SWIDTH 617 0
DWIDTH 12 0
BBX 12 14 0 0
BITMAP
0E00
1180
2040
5E20
91A0
90A0
9190
9F10
9190
91A0
50A0
4020
2040
1F80
ENDCHAR
STARTCHAR 00AF
ENCODING 175
SWIDTH 617 0
DWIDTH 12 0
BBX 6 1 3 12
BITMAP
FC
ENDCHAR
STARTCHAR 00B0
ENCODING 176
SWIDTH 617 0
DWIDTH 12 0
BBX 6 6 3 8
BITMAP
20
F8
8C
84
8C
78
ENDCHAR
STARTCHAR 00B1
ENCODING 177
SWIDTH 617 0
DWIDTH 12 0
BBX 10 10 1 0
BITMAP
0C00
0C00
0C00
FFC0
FFC0
0C00
0C00
0000
FFC0
FFC0
ENDCHAR
STARTCHAR 00B2
ENCODING 178
SWIDTH 617 0
DWIDTH 12 0
BBX 5 8 3 8
BITMAP
30
58
88
08
18
60
C0
F8
ENDCHAR
STARTCHAR 00B3
ENCODING 179
SWIDTH 617 0
DWIDTH 12 0
BBX 5 8 3 8
BITMAP
20
58
88
18
38
08
C8
78
ENDCHAR
STARTCHAR 00B4
ENCODING 180
SWIDTH 617 0
DWIDTH 12 0
BBX 3 4 4 11
BITMAP
20
60
40
C0
ENDCHAR
STARTCHAR 00B5
ENCODING 181
SWIDTH 617 0
DWIDTH 12 0
BBX 10 13 1 -3
BITMAP
C180
C180
C180
C180
C180
C180
C180
E180
F780
FDC0
C000
C000
C000
ENDCHAR
STARTCHAR 00B6
ENCODING 182
SWIDTH 617 0
DWIDTH 12 0
BBX 9 16 1 -3
BITMAP
7F80
7B00
FB00
FB00
FB00
FB00
7B00
3B00
0B00
0B00
0B00
0B00
0B00
0B00
0B00
0B00
ENDCHAR
STARTCHAR 00B7
ENCODING 183
SWIDTH 617 0
DWIDTH 12 0
BBX 2 3 5 6
BITMAP
C0
C0
C0
ENDCHAR
STARTCHAR 00B8
ENCODING 184
SWIDTH 617 0
DWIDTH 12 0
BBX 4 3 4 -4
BITMAP
70
10
E0
ENDCHAR
STARTCHAR 00B9
ENCODING 185
SWIDTH 617 0
DWIDTH 12 0
BBX 5 7 3 8
BITMAP
E0
20
20
20
20
20
F8
ENDCHAR
STARTCHAR 00BA
ENCODING 186
SWIDTH 617 0
DWIDTH 12 0
BBX 6 7 3 7
BITMAP
20
58
8C
8C
8C
48
30
ENDCHAR
STARTCHAR 00BB
ENCODING 187
SWIDTH 617 0
DWIDTH 12 0
BBX 8 7 2 3
BITMAP
CC
64
66
33
66
44
CC
ENDCHAR
STARTCHAR 00BC
ENCODING 188
SWIDTH 617 0
DWIDTH 12 0
BBX 12 13 0 0
BITMAP
E030
2040
2080
2180
2300
2040
F880
00A0
0920
1120
23F0
6020
C020
ENDCHAR
STARTCHAR 00BD
ENCODING 189
SWIDTH 617 0
DWIDTH 12 0
BBX 12 13 0 0
BITMAP
E030
2040
2080
2180
2300
20C0
F9A0
0130
1830
1060
2080
4100
C1F0
ENDCHAR
STARTCHAR 00BE
ENCODING 190
SWIDTH 617 0
DWIDTH 12 0
BBX 12 14 0 0
BITMAP
2010
D820
8840
1880
3980
0B00
8840
7080
00A0
0920
1120
23F0
6020
C020
ENDCHAR
STARTCHAR 00BF
ENCODING 191
SWIDTH 617 0
DWIDTH 12 0
BBX 8 14 2 -4
BITMAP
38
38
00
00
10
10
30
E0
C0
C3
C3
C7
7E
18
ENDCHAR
STARTCHAR 00C0
ENCODING 192
SWIDTH 617 0
DWIDTH 12 0
BBX 11 17 0 0
BITMAP
1800
0C00
0200
0000
0E00
0F00
0B00
1B00
1980
1980
3180
30C0
3FC0
7FC0
6060
6060
C060
ENDCHAR
STARTCHAR 00C1
ENCODING 193
SWIDTH 617 0
DWIDTH 12 0
BBX 11 17 0 0
BITMAP
0380
0600
0000
0000
0E00
0F00
0B00
1B00
1980
1980
3180
30C0
3FC0
7FC0
6060
6060
C060
ENDCHAR
STARTCHAR 00C2
ENCODING 194
SWIDTH 617 0
DWIDTH 12 0
BBX 11 17 0 0
BITMAP
0E00
1980
0000
0000
0E00
0F00
0B00
1B00
1980
1980
3180
30C0
3FC0
7FC0
6060
6060
C060
ENDCHAR
STARTCHAR 00C3
ENCODING 195
SWIDTH 617 0
DWIDTH 12 0
BBX 11 17 0 0
BITMAP
1C80
3780
0000
0000
0E00
0F00
0B00
1B00
1980
1980
3180
30C0
3FC0
7FC0
6060
6060
C060
ENDCHAR
STARTCHAR 00C4
ENCODING 196
SWIDTH 617 0
DWIDTH 12 0
BBX 11 17 0 0
BITMAP
1980
1980
0000
0000
0E00
0F00
0B00
1B00
1980
1980
3180
30C0
3FC0
7FC0
6060
6060
C060
ENDCHAR
STARTCHAR 00C5
ENCODING 197
SWIDTH 617 0
DWIDTH 12 0
BBX 11 18 0 0
BITMAP
0F00
0900
0B00
0400
0000
0E00
0F00
0B00
1B00
1980
1980
3180
30C0
3FC0
7FC0
6060
6060
C060
ENDCHAR
STARTCHAR 00C6
ENCODING 198
SWIDTH 617 0
DWIDTH 12 0
BBX 11 13 0 0
BITMAP
0FE0
0F00
1B00
1B00
1B00
33C0
33C0
3300
7F00
7F00
6300
C3E0
C3E0
ENDCHAR
STARTCHAR 00C7
ENCODING 199
SWIDTH 617 0
DWIDTH 12 0
BBX 10 18 1 -4
BITMAP
0C00
7F00
6180
C180
C0C0
C0C0
C000
C000
C000
C0C0
C0C0
C180
7380
3F00
0800
0600
0200
1C00
ENDCHAR
STARTCHAR 00C8
ENCODING 200
SWIDTH 617 0
DWIDTH 12 0
BBX 9 17 2 0
BITMAP
7000
1800
0000
0000
FF00
C000
C000
C000
C000
FF00
FF00
C000
C000
C000
C000
FF00
FF80
ENDCHAR
STARTCHAR 00C9
ENCODING 201
SWIDTH 617 0
DWIDTH 12 0
BBX 9 17 2 0
BITMAP
0600
0C00
1000
0000
FF00
C000
C000
C000
C000
FF00
FF00
C000
C000
C000
C000
FF00
FF80
ENDCHAR
STARTCHAR 00CA
ENCODING 202
SWIDTH 617 0
DWIDTH 12 0
BBX 9 17 2 0
BITMAP
3C00
6600
0000
0000
FF00
C000
C000
C000
C000
FF00
FF00
C000
C000
C000
C000
FF00
FF80
ENDCHAR
STARTCHAR 00CB
ENCODING 203
SWIDTH 617 0
DWIDTH 12 0
BBX 9 17 2 0
BITMAP
6600
6600
0000
0000
FF00
C000
C000
C000
C000
FF00
FF00
C000
C000
C000
C000
FF00
FF80
ENDCHAR
STARTCHAR 00CC
ENCODING 204
SWIDTH 617 0
DWIDTH 12 0
BBX 8 17 2 0
BITMAP
60
30
08
00
FF
18
18
18
18
18
18
18
18
18
18
FF
FF
ENDCHAR
STARTCHAR 00CD
ENCODING 205
SWIDTH 617 0
DWIDTH 12 0
BBX 8 17 2 0
BITMAP
0E
18
00
00
FF
18
18
18
18
18
18
18
18
18
18
FF
FF
ENDCHAR
STARTCHAR 00CE
ENCODING 206
SWIDTH 617 0
DWIDTH 12 0
BBX 8 17 2 0
BITMAP
38
66
00
00
FF
18
18
18
18
18
18
18
18
18
18
FF
FF
ENDCHAR
STARTCHAR 00CF
ENCODING 207
SWIDTH 617 0
DWIDTH 12 0
BBX 8 17 2 0
BITMAP
66
66
00
00
FF
18
18
18
18
18
18
18
18
18
18
FF
FF
ENDCHAR
STARTCHAR 00D0
ENCODING 208
SWIDTH 617 0
DWIDTH 12 0
BBX 11 13 0 0
BITMAP
7F80
71C0
7060
7060
7060
7060
FE60
7060
7060
7060
70E0
7FC0
7F80
ENDCHAR
STARTCHAR 00D1
ENCODING 209
SWIDTH 617 0
DWIDTH 12 0
BBX 9 17 1 0
BITMAP
3900
6F00
0000
0000
E180
E180
F180
F180
D980
D980
CD80
CD80
C780
C780
C380
C380
C180
ENDCHAR
STARTCHAR 00D2
ENCODING 210
SWIDTH 617 0
DWIDTH 12 0
BBX 10 17 1 0
BITMAP
3000
1800
0400
0C00
7F00
6380
C1C0
C0C0
C0C0
C0C0
C0C0
C0C0
C0C0
C0C0
C180
7380
3F00
ENDCHAR
STARTCHAR 00D3
ENCODING 211
SWIDTH 617 0
DWIDTH 12 0
BBX 10 17 1 0
BITMAP
0700
0C00
0000
0C00
7F00
6380
C1C0
C0C0
C0C0
C0C0
C0C0
C0C0
C0C0
C0C0
C180
7380
3F00
ENDCHAR
STARTCHAR 00D4
ENCODING 212
SWIDTH 617 0
DWIDTH 12 0
BBX 10 17 1 0
BITMAP
1C00
3300
0000
0C00
7F00
6380
C1C0
C0C0
C0C0
C0C0
C0C0
C0C0
C0C0
C0C0
C180
7380
3F00
ENDCHAR
STARTCHAR 00D5
ENCODING 213
SWIDTH 617 0
DWIDTH 12 0
BBX 10 17 1 0
BITMAP
3900
6F00
0000
0C00
7F00
6380
C1C0
C0C0
C0C0
C0C0
C0C0
C0C0
C0C0
C0C0
C180
7380
3F00
ENDCHAR
STARTCHAR 00D6
ENCODING 214
SWIDTH 617 0
DWIDTH 12 0
BBX 10 17 1 0
BITMAP
3300
3300
0000
0C00
7F00
6380
C1C0
C0C0
C0C0
C0C0
C0C0
C0C0
C0C0
C0C0
C180
7380
3F00
ENDCHAR
STARTCHAR 00D7
ENCODING 215
SWIDTH 617 0
DWIDTH 12 0
BBX 8 8 2 1
BITMAP
82
C7
6C
38
38
6C
C6
83
ENDCHAR
STARTCHAR 00D8
ENCODING 216
SWIDTH 617 0
DWIDTH 12 0
BBX 11 16 0 -1
BITMAP
0020
0660
3FC0
31C0
61E0
6160
6360
6260
6460
6C60
6860
7860
70C0
39C0
7F80
C000
ENDCHAR
STARTCHAR 00D9
ENCODING 217
SWIDTH 617 0
DWIDTH 12 0
BBX 9 17 1 0
BITMAP
3000
1800
0400
0000
C180
C180
C180
C180
C180
C180
C180
C180
C180
C180
6180
7780
3F00
ENDCHAR
STARTCHAR 00DA
ENCODING 218
SWIDTH 617 0
DWIDTH 12 0
BBX 9 17 1 0
BITMAP
0700
0C00
0000
0000
C180
C180
C180
C180
C180
C180
C180
C180
C180
C180
6180
7780
3F00
ENDCHAR
STARTCHAR 00DB
ENCODING 219
SWIDTH 617 0
DWIDTH 12 0
BBX 9 17 1 0
BITMAP
1C00
3300
0000
0000
C180
C180
C180
C180
C180
C180
C180
C180
C180
C180
6180
7780
3F00
ENDCHAR
STARTCHAR 00DC
ENCODING 220
SWIDTH 617 0
DWIDTH 12 0
BBX 9 17 1 0
BITMAP
3300
3300
0000
0000
C180
C180
C180
C180
C180
C180
C180
C180
C180
C180
6180
7780
3F00
ENDCHAR
STARTCHAR 00DD
ENCODING 221
SWIDTH 617 0
DWIDTH 12 0
BBX 11 17 0 0
BITMAP
0380
0600
0000
8000
6060
70C0
30C0
3980
1980
1F00
0F00
0600
0600
0600
0600
0600
0600
ENDCHAR
STARTCHAR 00DE
ENCODING 222
SWIDTH 617 0
DWIDTH 12 0
BBX 10 13 1 0
BITMAP
E000
E000
FF00
FF80
E0C0
E0C0
E0C0
E0C0
FF80
FF00
E000
E000
E000
ENDCHAR
STARTCHAR 00DF
ENCODING 223
SWIDTH 617 0
DWIDTH 12 0
BBX 11 15 0 -1
BITMAP
1F80
39C0
30C0
30C0
F0C0
F1C0
3700
31C0
30C0
3060
3060
30C0
37C0
3780
3000
ENDCHAR
STARTCHAR 00E0
ENCODING 224
SWIDTH 617 0
DWIDTH 12 0
BBX 10 15 1 0
BITMAP
3000
1800
0800
0C00
0000
3E00
6300
4180
0180
1F80
7180
C180
C380
E780
7DC0
ENDCHAR
STARTCHAR 00E1
ENCODING 225
SWIDTH 617 0
DWIDTH 12 0
BBX 10 15 1 0
BITMAP
0600
0400
0C00
0800
0000
3E00
6300
4180
0180
1F80
7180
C180
C380
E780
7DC0
ENDCHAR
STARTCHAR 00E2
ENCODING 226
SWIDTH 617 0
DWIDTH 12 0
BBX 10 15 1 0
BITMAP
0C00
1C00
3200
6300
0000
3E00
6300
4180
0180
1F80
7180
C180
C380
E780
7DC0
ENDCHAR
STARTCHAR 00E3
ENCODING 227
SWIDTH 617 0
DWIDTH 12 0
BBX 10 14 1 0
BITMAP
3900
4F00
0000
0000
3E00
6300
4180
0180
1F80
7180
C180
C380
E780
7DC0
ENDCHAR
STARTCHAR 00E4
ENCODING 228
SWIDTH 617 0
DWIDTH 12 0
BBX 10 14 1 0
BITMAP
2300
2300
0000
0000
3E00
6300
4180
0180
1F80
7180
C180
C380
E780
7DC0
ENDCHAR
STARTCHAR 00E5
ENCODING 229
SWIDTH 617 0
DWIDTH 12 0
BBX 10 15 1 0
BITMAP
1C00
1200
1600
0800
0000
3E00
6300
4180
0180
1F80
7180
C180
C380
E780
7DC0
ENDCHAR
STARTCHAR 00E6
ENCODING 230
SWIDTH 617 0
DWIDTH 12 0
BBX 11 10 0 0
BITMAP
39C0
6F60
4620
0620
3FE0
6600
C620
C620
CF60
7BC0
ENDCHAR
STARTCHAR 00E7
ENCODING 231
SWIDTH 617 0
DWIDTH 12 0
BBX 9 14 1 -4
BITMAP
3E00
7300
6180
C180
C000
C000
C180
6180
7300
3E00
0800
0600
0200
1C00
ENDCHAR
STARTCHAR 00E8
ENCODING 232
SWIDTH 617 0
DWIDTH 12 0
BBX 9 15 1 0
BITMAP
1000
1800
0800
0400
0000
3E00
7300
6180
C180
FF80
C000
C180
6180
7380
3F00
ENDCHAR
STARTCHAR 00E9
ENCODING 233
SWIDTH 617 0
DWIDTH 12 0
BBX 9 15 1 0
BITMAP
0600
0600
0C00
0800
0000
3E00
7300
6180
C180
FF80
C000
C180
6180
7380
3F00
ENDCHAR
STARTCHAR 00EA
ENCODING 234
SWIDTH 617 0
DWIDTH 12 0
BBX 9 15 1 0
BITMAP
0C00
1E00
3200
2100
0000
3E00
7300
6180
C180
FF80
C000
C180
6180
7380
3F00
ENDCHAR
STARTCHAR 00EB
ENCODING 235
SWIDTH 617 0
DWIDTH 12 0
BBX 9 14 1 0
BITMAP
3300
3300
0000
0000
3E00
7300
6180
C180
FF80
C000
C180
6180
7380
3F00
ENDCHAR
STARTCHAR 00EC
ENCODING 236
SWIDTH 617 0
DWIDTH 12 0
BBX 9 15 2 0
BITMAP
3000
1000
1800
0800
0000
F800
F800
1800
1800
1800
1800
1800
1800
FF80
FF80
ENDCHAR
STARTCHAR 00ED
ENCODING 237
SWIDTH 617 0
DWIDTH 12 0
BBX 9 15 2 0
BITMAP
0600
0C00
0800
1800
0000
F800
F800
1800
1800
1800
1800
1800
1800
FF80
FF80
ENDCHAR
STARTCHAR 00EE
ENCODING 238
SWIDTH 617 0
DWIDTH 12 0
BBX 9 15 2 0
BITMAP
1800
3C00
2600
6300
0000
F800
F800
1800
1800
1800
1800
1800
1800
FF80
FF80
ENDCHAR
STARTCHAR 00EF
ENCODING 239
SWIDTH 617 0
DWIDTH 12 0
BBX 9 14 2 0
BITMAP
6600
6600
0000
0000
F800
F800
1800
1800
1800
1800
1800
1800
FF80
FF80
ENDCHAR
STARTCHAR 00F0
ENCODING 240
SWIDTH 617 0
DWIDTH 12 0
BBX 9 14 1 0
BITMAP
7600
1800
6C00
0600
3F00
7380
6180
C180
C180
C180
C180
6180
7300
3E00
ENDCHAR
STARTCHAR 00F1
ENCODING 241
SWIDTH 617 0
DWIDTH 12 0
BBX 8 14 2 0
BITMAP
72
DE
00
00
BE
E7
C3
C3
C3
C3
C3
C3
C3
C3
ENDCHAR
STARTCHAR 00F2
ENCODING 242
SWIDTH 617 0
DWIDTH 12 0
BBX 9 15 1 0
BITMAP
3000
1800
0800
0C00
0000
3E00
7300
6180
C180
C180
C180
C180
6180
7300
3E00
ENDCHAR
STARTCHAR 00F3
ENCODING 243
SWIDTH 617 0
DWIDTH 12 0
BBX 9 15 1 0
BITMAP
0600
0400
0C00
0800
0000
3E00
7300
6180
C180
C180
C180
C180
6180
7300
3E00
ENDCHAR
STARTCHAR 00F4
ENCODING 244
SWIDTH 617 0
DWIDTH 12 0
BBX 9 15 1 0
BITMAP
0C00
1E00
3200
2300
0000
3E00
7300
6180
C180
C180
C180
C180
6180
7300
3E00
ENDCHAR
STARTCHAR 00F5
ENCODING 245
SWIDTH 617 0
DWIDTH 12 0
BBX 9 14 1 0
BITMAP
3900
6F00
0000
0000
3E00
7300
6180
C180
C180
C180
C180
6180
7300
3E00
ENDCHAR
STARTCHAR 00F6
ENCODING 246
SWIDTH 617 0
DWIDTH 12 0
BBX 9 14 1 0
BITMAP
3300
3300
0000
0000
3E00
7300
6180
C180
C180
C180
C180
6180
7300
3E00
ENDCHAR
STARTCHAR 00F7
ENCODING 247
SWIDTH 617 0
DWIDTH 12 0
BBX 10 8 1 1
BITMAP
0C00
0C00
0000
FFC0
FFC0
0000
0C00
0C00
ENDCHAR
STARTCHAR 00F8
ENCODING 248
SWIDTH 617 0
DWIDTH 12 0
BBX 9 12 1 -1
BITMAP
0080
3F00
7300
6380
C580
CD80
C980
D180
7180
7300
7E00
C000
ENDCHAR
STARTCHAR 00F9
ENCODING 249
SWIDTH 617 0
DWIDTH 12 0
BBX 10 15 1 0
BITMAP
3000
1800
0800
0C00
0000
C180
C180
C180
C180
C180
C180
C180
6180
7780
3DC0
ENDCHAR
STARTCHAR 00FA
ENCODING 250
SWIDTH 617 0
DWIDTH 12 0
BBX 10 15 1 0
BITMAP
0600
0400
0C00
0800
0000
C180
C180
C180
C180
C180
C180
C180
6180
7780
3DC0
ENDCHAR
STARTCHAR 00FB
ENCODING 251
SWIDTH 617 0
DWIDTH 12 0
BBX 10 15 1 0
BITMAP
0C00
1C00
3200
6300
0000
C180
C180
C180
C180
C180
C180
C180
6180
7780
3DC0
ENDCHAR
STARTCHAR 00FC
ENCODING 252
SWIDTH 617 0
DWIDTH 12 0
BBX 10 14 1 0
BITMAP
2300
2300
0000
0000
C180
C180
C180
C180
C180
C180
C180
6180
7780
3DC0
ENDCHAR
STARTCHAR 00FD
ENCODING 253
SWIDTH 617 0
DWIDTH 12 0
BBX 10 19 1 -4
BITMAP
0600
0600
0C00
0800
0000
C0C0
6180
6180
6300
3300
3200
1E00
1E00
1C00
0C00
0C00
1800
7000
6000
ENDCHAR
STARTCHAR 00FE
ENCODING 254
SWIDTH 617 0
DWIDTH 12 0
BBX 9 18 2 -4
BITMAP
C000
C000
C000
C000
FE00
E700
C300
C100
C180
C180
C100
C300
E700
FE00
C000
C000
C000
C000
ENDCHAR
STARTCHAR 00FF
ENCODING 255
SWIDTH 617 0
DWIDTH 12 0
BBX 10 18 1 -4
BITMAP
3300
3300
0000
0000
C0C0
6180
6180
6300
3300
3200
1E00
1E00
1C00
0C00
0C00
1800
7000
6000
ENDCHAR
STARTCHAR 0100
ENCODING 256
SWIDTH 617 0
DWIDTH 12 0
BBX 11 16 0 0
BITMAP
1F80
0000
0000
0E00
0F00
0B00
1B00
1980
1980
3180
30C0
3FC0
7FC0
6060
6060
C060
ENDCHAR
STARTCHAR 0101
ENCODING 257
SWIDTH 617 0
DWIDTH 12 0
BBX 10 13 1 0
BITMAP
3F00
0000
0000
3E00
6300
4180
0180
1F80
7180
C180
C380
E780
7DC0
ENDCHAR
STARTCHAR 0102
ENCODING 258
SWIDTH 617 0
DWIDTH 12 0
BBX 11 17 0 0
BITMAP
1180
1F00
0000
0000
0E00
0F00
0B00
1B00
1980
1980
3180
30C0
3FC0
7FC0
6060
6060
C060
ENDCHAR
STARTCHAR 0103
ENCODING 259
SWIDTH 617 0
DWIDTH 12 0
BBX 10 14 1 0
BITMAP
6300
3E00
0800
0000
3E00
6300
4180
0180
1F80
7180
C180
C380
E780
7DC0
ENDCHAR
STARTCHAR 0104
ENCODING 260
SWIDTH 617 0
DWIDTH 12 0
BBX 12 16 0 -3
BITMAP
0E00
0F00
0B00
1B00
1980
1980
3180
30C0
3FC0
7FC0
6060
6060
C060
0040
00C0
0070
ENDCHAR
STARTCHAR 0105
ENCODING 261
SWIDTH 617 0
DWIDTH 12 0
BBX 11 13 1 -3
BITMAP
3E00
6300
4180
0180
1F80
7180
C180
C380
E780
7DC0
0080
0180
00E0
ENDCHAR
STARTCHAR 0106
ENCODING 262
SWIDTH 617 0
DWIDTH 12 0
BBX 10 17 1 0
BITMAP
0700
0C00
0000
0C00
7F00
6180
C180
C0C0
C0C0
C000
C000
C000
C0C0
C0C0
C180
7380
3F00
ENDCHAR
STARTCHAR 0107
ENCODING 263
SWIDTH 617 0
DWIDTH 12 0
BBX 9 15 1 0
BITMAP
0600
0400
0C00
0800
0000
3E00
7300
6180
C180
C000
C000
C180
6180
7300
3E00
ENDCHAR
STARTCHAR 0108
ENCODING 264
SWIDTH 617 0
DWIDTH 12 0
BBX 10 17 1 0
BITMAP
1C00
3300
0000
0C00
7F00
6180
C180
C0C0
C0C0
C000
C000
C000
C0C0
C0C0
C180
7380
3F00
ENDCHAR
STARTCHAR 0109
ENCODING 265
SWIDTH 617 0
DWIDTH 12 0
BBX 9 15 1 0
BITMAP
0C00
1E00
3200
2300
0000
3E00
7300
6180
C180
C000
C000
C180
6180
7300
3E00
ENDCHAR
STARTCHAR 010A
ENCODING 266
SWIDTH 617 0
DWIDTH 12 0
BBX 10 17 1 0
BITMAP
0C00
0C00
0000
0C00
7F00
6180
C180
C0C0
C0C0
C000
C000
C000
C0C0
C0C0
C180
7380
3F00
ENDCHAR
STARTCHAR 010B
ENCODING 267
SWIDTH 617 0
DWIDTH 12 0
BBX 9 14 1 0
BITMAP
0C00
0C00
0000
0000
3E00
7300
6180
C180
C000
C000
C180
6180
7300
3E00
ENDCHAR
STARTCHAR 010C
ENCODING 268
SWIDTH 617 0
DWIDTH 12 0
BBX 10 17 1 0
BITMAP
3300
1E00
0000
0C00
7F00
6180
C180
C0C0
C0C0
C000
C000
C000
C0C0
C0C0
C180
7380
3F00
ENDCHAR
STARTCHAR 010D
ENCODING 269
SWIDTH 617 0
DWIDTH 12 0
BBX 9 15 1 0
BITMAP
6300
3200
1C00
0C00
0000
3E00
7300
6180
C180
C000
C000
C180
6180
7300
3E00
ENDCHAR
STARTCHAR 010E
ENCODING 270
SWIDTH 617 0
DWIDTH 12 0
BBX 10 17 1 0
BITMAP
3300
1E00
0000
0000
FF00
E380
E0C0
E0C0
E0C0
E0C0
E0C0
E0C0
E0C0
E0C0
E1C0
FF80
FF00
ENDCHAR
STARTCHAR 010F
ENCODING 271
SWIDTH 617 0
DWIDTH 12 0
BBX 12 14 1 0
BITMAP
01B0
01B0
01B0
0190
3DA0
6380
4180
C180
C180
C180
C180
C180
6380
3D80
ENDCHAR
STARTCHAR 0110
ENCODING 272
SWIDTH 617 0
DWIDTH 12 0
BBX 11 13 0 0
BITMAP
7F80
71C0
7060
7060
7060
7060
FE60
7060
7060
7060
70E0
7FC0
7F80
ENDCHAR
STARTCHAR 0111
ENCODING 273
SWIDTH 617 0
DWIDTH 12 0
BBX 11 14 1 0
BITMAP
0180
0180
0FE0
0180
3D80
6380
4180
C180
C180
C180
C180
C180
6380
3D80
ENDCHAR
STARTCHAR 0112
ENCODING 274
SWIDTH 617 0
DWIDTH 12 0
BBX 9 16 2 0
BITMAP
7E00
0000
0000
FF00
C000
C000
C000
C000
FF00
FF00
C000
C000
C000
C000
FF00
FF80
ENDCHAR
STARTCHAR 0113
ENCODING 275
SWIDTH 617 0
DWIDTH 12 0
BBX 9 13 1 0
BITMAP
3F00
0000
0000
3E00
7300
6180
C180
FF80
C000
C180
6180
7380
3F00
ENDCHAR
STARTCHAR 0114
ENCODING 276
SWIDTH 617 0
DWIDTH 12 0
BBX 9 17 2 0
BITMAP
6200
3C00
0000
0000
FF00
C000
C000
C000
C000
FF00
FF00
C000
C000
C000
C000
FF00
FF80
ENDCHAR
STARTCHAR 0115
ENCODING 277
SWIDTH 617 0
DWIDTH 12 0
BBX 9 14 1 0
BITMAP
2100
3E00
0800
0000
3E00
7300
6180
C180
FF80
C000
C180
6180
7380
3F00
ENDCHAR
STARTCHAR 0116
ENCODING 278
SWIDTH 617 0
DWIDTH 12 0
BBX 9 17 2 0
BITMAP
1800
1800
0000
0000
FF00
C000
C000
C000
C000
FF00
FF00
C000
C000
C000
C000
FF00
FF80
ENDCHAR
STARTCHAR 0117
ENCODING 279
SWIDTH 617 0
DWIDTH 12 0
BBX 9 14 1 0
BITMAP
0C00
0C00
0000
0000
3E00
7300
6180
C180
FF80
C000
C180
6180
7380
3F00
ENDCHAR
STARTCHAR 0118
ENCODING 280
SWIDTH 617 0
DWIDTH 12 0
BBX 9 16 2 -3
BITMAP
FF00
C000
C000
C000
C000
FF00
FF00
C000
C000
C000
C000
FF00
FF80
0200
0600
0380
ENDCHAR
STARTCHAR 0119
ENCODING 281
SWIDTH 617 0
DWIDTH 12 0
BBX 9 13 1 -3
BITMAP
3E00
7300
6180
C180
FF80
C000
C180
6180
7380
3F00
0C00
0C00
0700
ENDCHAR
STARTCHAR 011A
ENCODING 282
SWIDTH 617 0
DWIDTH 12 0
BBX 9 17 2 0
BITMAP
6600
3C00
0000
0000
FF00
C000
C000
C000
C000
FF00
FF00
C000
C000
C000
C000
FF00
FF80
ENDCHAR
STARTCHAR 011B
ENCODING 283
SWIDTH 617 0
DWIDTH 12 0
BBX 9 15 1 0
BITMAP
2300
1200
1E00
0C00
0000
3E00
7300
6180
C180
FF80
C000
C180
6180
7380
3F00
ENDCHAR
STARTCHAR 011C
ENCODING 284
SWIDTH 617 0
DWIDTH 12 0
BBX 10 17 1 0
BITMAP
1C00
3300
0000
0C00
7F00
6180
C1C0
C0C0
C000
C000
CFC0
C0C0
C0C0
C0C0
C1C0
73C0
3E40
ENDCHAR
STARTCHAR 011D
ENCODING 285
SWIDTH 617 0
DWIDTH 12 0
BBX 10 18 1 -4
BITMAP
1E00
3300
0000
0040
3F80
6380
6180
6180
6180
3F00
6000
4000
7F80
7FC0
C0C0
C0C0
FFC0
3F00
ENDCHAR
STARTCHAR 011E
ENCODING 286
SWIDTH 617 0
DWIDTH 12 0
BBX 10 17 1 0
BITMAP
2300
1E00
0000
0C00
7F00
6180
C1C0
C0C0
C000
C000
CFC0
C0C0
C0C0
C0C0
C1C0
73C0
3E40
ENDCHAR
STARTCHAR 011F
ENCODING 287
SWIDTH 617 0
DWIDTH 12 0
BBX 10 18 1 -4
BITMAP
6300
3E00
08C0
00C0
3F80
6380
6180
6180
6180
3F00
6000
4000
7F80
7FC0
C0C0
C0C0
FFC0
3F00
ENDCHAR
STARTCHAR 0120
ENCODING 288
SWIDTH 617 0
DWIDTH 12 0
BBX 10 17 1 0
BITMAP
0C00
0C00
0000
0C00
7F00
6180
C1C0
C0C0
C000
C000
CFC0
C0C0
C0C0
C0C0
C1C0
73C0
3E40
ENDCHAR
STARTCHAR 0121
ENCODING 289
SWIDTH 617 0
DWIDTH 12 0
BBX 10 18 1 -4
BITMAP
0C00
0C00
00C0
00C0
3F80
6380
6180
6180
6180
3F00
6000
4000
7F80
7FC0
C0C0
C0C0
FFC0
3F00
ENDCHAR
STARTCHAR 0122
ENCODING 290
SWIDTH 617 0
DWIDTH 12 0
BBX 10 20 1 -6
BITMAP
0C00
7F00
6180
C1C0
C0C0
C000
C000
CFC0
C0C0
C0C0
C0C0
C1C0
73C0
3E40
0000
0C00
0C00
0C00
0400
0800
ENDCHAR
STARTCHAR 0123
ENCODING 291
SWIDTH 617 0
DWIDTH 12 0
BBX 10 21 1 -4
BITMAP
0400
0800
0800
0C00
0C00
00C0
00C0
3F80
6380
6180
6180
6180
3F00
6000
4000
7F80
7FC0
C0C0
C0C0
FFC0
3F00
ENDCHAR
STARTCHAR 0124
ENCODING 292
SWIDTH 617 0
DWIDTH 12 0
BBX 9 17 1 0
BITMAP
1C00
3300
0000
0000
C180
C180
C180
C180
C180
FF80
FF80
C180
C180
C180
C180
C180
C180
ENDCHAR
STARTCHAR 0125
ENCODING 293
SWIDTH 617 0
DWIDTH 12 0
BBX 11 17 -1 0
BITMAP
3800
6C00
8200
1800
1800
1800
1800
1FC0
1CE0
1860
1860
1860
1860
1860
1860
1860
1860
ENDCHAR
STARTCHAR 0126
ENCODING 294
SWIDTH 617 0
DWIDTH 12 0
BBX 12 13 0 0
BITMAP
60C0
60C0
FFF0
60C0
60C0
7FC0
7FC0
60C0
60C0
60C0
60C0
60C0
60C0
ENDCHAR
STARTCHAR 0127
ENCODING 295
SWIDTH 617 0
DWIDTH 12 0
BBX 10 14 0 0
BITMAP
3000
3000
FE00
3000
3F80
39C0
30C0
30C0
30C0
30C0
30C0
30C0
30C0
30C0
ENDCHAR
STARTCHAR 0128
ENCODING 296
SWIDTH 617 0
DWIDTH 12 0
BBX 8 17 2 0
BITMAP
72
DE
00
00
FF
18
18
18
18
18
18
18
18
18
18
FF
FF
ENDCHAR
STARTCHAR 0129
ENCODING 297
SWIDTH 617 0
DWIDTH 12 0
BBX 9 14 2 0
BITMAP
7B00
4E00
0000
0000
F800
F800
1800
1800
1800
1800
1800
1800
FF80
FF80
ENDCHAR
STARTCHAR 012A
ENCODING 298
SWIDTH 617 0
DWIDTH 12 0
BBX 8 16 2 0
BITMAP
7E
00
00
FF
18
18
18
18
18
18
18
18
18
18
FF
FF
ENDCHAR
STARTCHAR 012B
ENCODING 299
SWIDTH 617 0
DWIDTH 12 0
BBX 9 13 2 0
BITMAP
7E00
0000
0000
F800
F800
1800
1800
1800
1800
1800
1800
FF80
FF80
ENDCHAR
STARTCHAR 012C
ENCODING 300
SWIDTH 617 0
DWIDTH 12 0
BBX 8 17 2 0
BITMAP
46
7C
00
00
FF
18
18
18
18
18
18
18
18
18
18
FF
FF
ENDCHAR
STARTCHAR 012D
ENCODING 301
SWIDTH 617 0
DWIDTH 12 0
BBX 9 14 2 0
BITMAP
6300
3E00
0800
0000
F800
F800
1800
1800
1800
1800
1800
1800
FF80
FF80
ENDCHAR
STARTCHAR 012E
ENCODING 302
SWIDTH 617 0
DWIDTH 12 0
BBX 8 16 2 -3
BITMAP
FF
18
18
18
18
18
18
18
18
18
18
FF
FF
0C
08
0F
ENDCHAR
STARTCHAR 012F
ENCODING 303
SWIDTH 617 0
DWIDTH 12 0
BBX 9 17 2 -3
BITMAP
1800
1800
0000
0000
F800
F800
1800
1800
1800
1800
1800
1800
FF80
FF80
1800
1000
0E00
ENDCHAR
STARTCHAR 0130
ENCODING 304
SWIDTH 617 0
DWIDTH 12 0
BBX 8 17 2 0
BITMAP
18
18
00
00
FF
18
18
18
18
18
18
18
18
18
18
FF
FF
ENDCHAR
STARTCHAR 0131
ENCODING 305
SWIDTH 617 0
DWIDTH 12 0
BBX 9 10 2 0
BITMAP
F800
F800
1800
1800
1800
1800
1800
1800
FF80
FF80
ENDCHAR
STARTCHAR 0132
ENCODING 306
SWIDTH 617 0
DWIDTH 12 0
BBX 9 13 1 0
BITMAP
C180
C180
C180
C180
C180
C180
C180
0180
0180
C180
6180
7380
3F00
ENDCHAR
STARTCHAR 0133
ENCODING 307
SWIDTH 617 0
DWIDTH 12 0
BBX 9 18 1 -4
BITMAP
E380
E380
0000
0000
6780
6780
6180
6180
6180
6180
6180
6180
6180
6180
0180
0180
1F00
0600
ENDCHAR
STARTCHAR 0134
ENCODING 308
SWIDTH 617 0
DWIDTH 12 0
BBX 10 17 2 0
BITMAP
0700
0CC0
0000
0000
0300
0300
0300
0300
0300
0300
0300
0300
0300
C300
C300
EE00
7C00
ENDCHAR
STARTCHAR 0135
ENCODING 309
SWIDTH 617 0
DWIDTH 12 0
BBX 8 19 2 -4
BITMAP
18
1C
26
63
00
F8
F8
18
18
18
18
18
18
18
18
18
18
F8
60
ENDCHAR
STARTCHAR 0136
ENCODING 310
SWIDTH 617 0
DWIDTH 12 0
BBX 10 19 1 -6
BITMAP
C1C0
C180
C300
C600
CE00
CC00
DC00
FE00
E600
C300
C380
C180
C0C0
0000
0C00
0C00
0C00
0400
0800
ENDCHAR
STARTCHAR 0137
ENCODING 311
SWIDTH 617 0
DWIDTH 12 0
BBX 9 20 2 -6
BITMAP
8000
8000
8000
8000
8300
8600
8C00
9800
B800
F800
FC00
CE00
8600
8380
0000
1800
1800
1000
1000
1000
ENDCHAR
STARTCHAR 0138
ENCODING 312
SWIDTH 617 0
DWIDTH 12 0
BBX 9 10 2 0
BITMAP
8300
8600
8C00
9800
B800
F800
FC00
CE00
8600
8380
ENDCHAR
STARTCHAR 0139
ENCODING 313
SWIDTH 617 0
DWIDTH 12 0
BBX 8 17 2 0
BITMAP
30
60
80
00
C0
C0
C0
C0
C0
C0
C0
C0
C0
C0
C0
FF
FF
ENDCHAR
STARTCHAR 013A
ENCODING 314
SWIDTH 617 0
DWIDTH 12 0
BBX 9 17 1 0
BITMAP
0700
0C00
0000
FC00
FC00
0C00
0C00
0C00
0C00
0C00
0C00
0C00
0C00
0C00
0C00
FF80
FF80
ENDCHAR
STARTCHAR 013B
ENCODING 315
SWIDTH 617 0
DWIDTH 12 0
BBX 8 19 2 -6
BITMAP
C0
C0
C0
C0
C0
C0
C0
C0
C0
C0
C0
FF
FF
00
18
18
18
08
18
ENDCHAR
STARTCHAR 013C
ENCODING 316
SWIDTH 617 0
DWIDTH 12 0
BBX 9 20 1 -6
BITMAP
FC00
FC00
0C00
0C00
0C00
0C00
0C00
0C00
0C00
0C00
0C00
0C00
FF80
FF80
0000
0C00
0C00
0C00
0400
0800
ENDCHAR
STARTCHAR 013D
ENCODING 317
SWIDTH 617 0
DWIDTH 12 0
BBX 8 14 2 0
BITMAP
03
C3
C3
C1
C2
C0
C0
C0
C0
C0
C0
C0
FF
FF
ENDCHAR
STARTCHAR 013E
ENCODING 318
SWIDTH 617 0
DWIDTH 12 0
BBX 9 14 1 0
BITMAP
FD80
FD80
0D80
0C80
0D80
0C00
0C00
0C00
0C00
0C00
0C00
0C00
FF80
FF80
ENDCHAR
STARTCHAR 013F
ENCODING 319
SWIDTH 617 0
DWIDTH 12 0
BBX 8 13 2 0
BITMAP
C0
C0
C0
C0
C7
C7
C7
C0
C0
C0
C0
FF
FF
ENDCHAR
STARTCHAR 0140
ENCODING 320
SWIDTH 617 0
DWIDTH 12 0
BBX 12 14 1 0
BITMAP
FC00
FC00
0C00
0C00
0C00
0C70
0C70
0C70
0C00
0C00
0C00
0C00
FF80
FF80
ENDCHAR
STARTCHAR 0141
ENCODING 321
SWIDTH 617 0
DWIDTH 12 0
BBX 9 13 1 0
BITMAP
6000
6000
6000
6000
6400
7C00
7000
E000
E000
6000
6000
7F80
7F80
ENDCHAR
STARTCHAR 0142
ENCODING 322
SWIDTH 617 0
DWIDTH 12 0
BBX 9 14 1 0
BITMAP
FC00
FC00
0C00
0C00
0C80
0F80
0E00
3C00
6C00
0C00
0C00
0C00
FF80
FF80
ENDCHAR
STARTCHAR 0143
ENCODING 323
SWIDTH 617 0
DWIDTH 12 0
BBX 9 17 1 0
BITMAP
0700
0C00
0000
0000
E180
E180
F180
F180
D980
D980
CD80
CD80
C780
C780
C380
C380
C180
ENDCHAR
STARTCHAR 0144
ENCODING 324
SWIDTH 617 0
DWIDTH 12 0
BBX 8 15 2 0
BITMAP
0C
0C
18
10
00
BE
E7
C3
C3
C3
C3
C3
C3
C3
C3
ENDCHAR
STARTCHAR 0145
ENCODING 325
SWIDTH 617 0
DWIDTH 12 0
BBX 9 19 1 -6
BITMAP
E180
E180
F180
F180
D980
D980
CD80
CD80
C780
C780
C380
C380
C180
0000
0C00
0C00
0C00
0400
0800
ENDCHAR
STARTCHAR 0146
ENCODING 326
SWIDTH 617 0
DWIDTH 12 0
BBX 8 16 2 -6
BITMAP
BE
E7
C3
C3
C3
C3
C3
C3
C3
C3
00
18
18
18
08
10
ENDCHAR
STARTCHAR 0147
ENCODING 327
SWIDTH 617 0
DWIDTH 12 0
BBX 9 17 1 0
BITMAP
3300
1E00
0000
0000
E180
E180
F180
F180
D980
D980
CD80
CD80
C780
C780
C380
C380
C180
ENDCHAR
STARTCHAR 0148
ENCODING 328
SWIDTH 617 0
DWIDTH 12 0
BBX 8 15 2 0
BITMAP
46
64
3C
18
00
BE
E7
C3
C3
C3
C3
C3
C3
C3
C3
ENDCHAR
STARTCHAR 0149
ENCODING 329
SWIDTH 617 0
DWIDTH 12 0
BBX 10 15 0 0
BITMAP
C000
C000
4000
4000
8000
2F80
39C0
30C0
30C0
30C0
30C0
30C0
30C0
30C0
30C0
ENDCHAR
STARTCHAR 014A
ENCODING 330
SWIDTH 617 0
DWIDTH 12 0
BBX 9 17 1 -4
BITMAP
E180
E180
F180
F180
D980
D980
CD80
CD80
C780
C780
C380
C380
C180
0180
0180
0780
0300
ENDCHAR
STARTCHAR 014B
ENCODING 331
SWIDTH 617 0
DWIDTH 12 0
BBX 8 14 2 -4
BITMAP
BE
E7
C3
C3
C3
C3
C3
C3
C3
C3
03
03
0F
04
ENDCHAR
STARTCHAR 014C
ENCODING 332
SWIDTH 617 0
DWIDTH 12 0
BBX 10 16 1 0
BITMAP
3F00
0000
0C00
7F00
6380
C1C0
C0C0
C0C0
C0C0
C0C0
C0C0
C0C0
C0C0
C180
7380
3F00
ENDCHAR
STARTCHAR 014D
ENCODING 333
SWIDTH 617 0
DWIDTH 12 0
BBX 9 13 1 0
BITMAP
3F00
0000
0000
3E00
7300
6180
C180
C180
C180
C180
6180
7300
3E00
ENDCHAR
STARTCHAR 014E
ENCODING 334
SWIDTH 617 0
DWIDTH 12 0
BBX 10 17 1 0
BITMAP
2300
3E00
0000
0C00
7F00
6380
C1C0
C0C0
C0C0
C0C0
C0C0
C0C0
C0C0
C0C0
C180
7380
3F00
ENDCHAR
STARTCHAR 014F
ENCODING 335
SWIDTH 617 0
DWIDTH 12 0
BBX 9 14 1 0
BITMAP
6300
3E00
0800
0000
3E00
7300
6180
C180
C180
C180
C180
6180
7300
3E00
ENDCHAR
STARTCHAR 0150
ENCODING 336
SWIDTH 617 0
DWIDTH 12 0
BBX 10 17 1 0
BITMAP
0D80
1B00
2400
0C00
7F00
6380
C1C0
C0C0
C0C0
C0C0
C0C0
C0C0
C0C0
C0C0
C180
7380
3F00
ENDCHAR
STARTCHAR 0151
ENCODING 337
SWIDTH 617 0
DWIDTH 12 0
BBX 9 14 1 0
BITMAP
1D80
1B00
2400
0000
3E00
7300
6180
C180
C180
C180
C180
6180
7300
3E00
ENDCHAR
STARTCHAR 0152
ENCODING 338
SWIDTH 617 0
DWIDTH 12 0
BBX 10 13 1 0
BITMAP
7FC0
E600
C600
C600
C600
C7C0
C7C0
C600
C600
C600
C600
7FC0
3FC0
ENDCHAR
STARTCHAR 0153
ENCODING 339
SWIDTH 617 0
DWIDTH 12 0
BBX 11 10 0 0
BITMAP
79C0
6F60
C620
C620
C7E0
C600
C620
C620
6F60
79C0
ENDCHAR
STARTCHAR 0154
ENCODING 340
SWIDTH 617 0
DWIDTH 12 0
BBX 11 17 1 0
BITMAP
0700
0400
0800
0000
FF80
C1C0
C0C0
C0C0
C0C0
C180
FF00
C380
C1C0
C0C0
C0C0
C0C0
C0E0
ENDCHAR
STARTCHAR 0155
ENCODING 341
SWIDTH 617 0
DWIDTH 12 0
BBX 10 15 1 0
BITMAP
0200
0600
0400
0C00
0000
F780
FDC0
38C0
30C0
3000
3000
3000
3000
FF80
FF80
ENDCHAR
STARTCHAR 0156
ENCODING 342
SWIDTH 617 0
DWIDTH 12 0
BBX 11 19 1 -6
BITMAP
FF80
C1C0
C0C0
C0C0
C0C0
C180
FF00
C380
C1C0
C0C0
C0C0
C0C0
C0E0
0000
0C00
0C00
0C00
0400
0800
ENDCHAR
STARTCHAR 0157
ENCODING 343
SWIDTH 617 0
DWIDTH 12 0
BBX 10 16 1 -6
BITMAP
F780
FDC0
38C0
30C0
3000
3000
3000
3000
FF80
FF80
0000
1800
1800
1800
0800
1800
ENDCHAR
STARTCHAR 0158
ENCODING 344
SWIDTH 617 0
DWIDTH 12 0
BBX 11 17 1 0
BITMAP
3300
1E00
0000
0000
FF80
C1C0
C0C0
C0C0
C0C0
C180
FF00
C380
C1C0
C0C0
C0C0
C0C0
C0E0
ENDCHAR
STARTCHAR 0159
ENCODING 345
SWIDTH 617 0
DWIDTH 12 0
BBX 10 15 1 0
BITMAP
3100
1300
1E00
0C00
0000
F780
FDC0
38C0
30C0
3000
3000
3000
3000
FF80
FF80
ENDCHAR
STARTCHAR 015A
ENCODING 346
SWIDTH 617 0
DWIDTH 12 0
BBX 10 17 1 0
BITMAP
0700
0C00
0000
0C00
7F00
E180
C0C0
C000
E000
7E00
1F80
03C0
00C0
C0C0
C0C0
FF80
3F00
ENDCHAR
STARTCHAR 015B
ENCODING 347
SWIDTH 617 0
DWIDTH 12 0
BBX 8 15 2 0
BITMAP
0C
08
18
10
00
7E
C7
C3
C0
FC
1F
03
83
C3
7E
ENDCHAR
STARTCHAR 015C
ENCODING 348
SWIDTH 617 0
DWIDTH 12 0
BBX 10 17 1 0
BITMAP
1C00
3300
0000
0C00
7F00
E180
C0C0
C000
E000
7E00
1F80
03C0
00C0
C0C0
C0C0
FF80
3F00
ENDCHAR
STARTCHAR 015D
ENCODING 349
SWIDTH 617 0
DWIDTH 12 0
BBX 8 15 2 0
BITMAP
18
3C
64
46
00
7E
C7
C3
C0
FC
1F
03
83
C3
7E
ENDCHAR
STARTCHAR 015E
ENCODING 350
SWIDTH 617 0
DWIDTH 12 0
BBX 10 18 1 -4
BITMAP
0C00
7F00
E180
C0C0
C000
E000
7E00
1F80
03C0
00C0
C0C0
C0C0
FF80
3F00
0800
0600
0200
1C00
ENDCHAR
STARTCHAR 015F
ENCODING 351
SWIDTH 617 0
DWIDTH 12 0
BBX 8 14 2 -4
BITMAP
7E
C7
C3
C0
FC
1F
03
83
C3
7E
10
0C
04
38
ENDCHAR
STARTCHAR 0160
ENCODING 352
SWIDTH 617 0
DWIDTH 12 0
BBX 10 17 1 0
BITMAP
3300
1E00
0000
0C00
7F00
E180
C0C0
C000
E000
7E00
1F80
03C0
00C0
C0C0
C0C0
FF80
3F00
ENDCHAR
STARTCHAR 0161
ENCODING 353
SWIDTH 617 0
DWIDTH 12 0
BBX 8 15 2 0
BITMAP
C6
64
38
18
00
7E
C7
C3
C0
FC
1F
03
83
C3
7E
ENDCHAR
STARTCHAR 0162
ENCODING 354
SWIDTH 617 0
DWIDTH 12 0
BBX 10 17 1 -4
BITMAP
FFC0
0C00
0C00
0C00
0C00
0C00
0C00
0C00
0C00
0C00
0C00
0C00
0C00
0800
0600
0200
1C00
ENDCHAR
STARTCHAR 0163
ENCODING 355
SWIDTH 617 0
DWIDTH 12 0
BBX 9 17 1 -4
BITMAP
1800
1800
1800
FF80
FF80
1800
1800
1800
1800
1800
1800
1C80
0F80
0400
0300
0100
0E00
ENDCHAR
STARTCHAR 0164
ENCODING 356
SWIDTH 617 0
DWIDTH 12 0
BBX 10 17 1 0
BITMAP
3300
1E00
0000
0000
FFC0
0C00
0C00
0C00
0C00
0C00
0C00
0C00
0C00
0C00
0C00
0C00
0C00
ENDCHAR
STARTCHAR 0165
ENCODING 357
SWIDTH 617 0
DWIDTH 12 0
BBX 9 15 1 0
BITMAP
0300
0300
1900
1900
1A00
FF80
FF80
1800
1800
1800
1800
1800
1800
1C80
0F80
ENDCHAR
STARTCHAR 0166
ENCODING 358
SWIDTH 617 0
DWIDTH 12 0
BBX 10 13 1 0
BITMAP
FFC0
0C00
0C00
0C00
0C00
0C00
7F80
0C00
0C00
0C00
0C00
0C00
0C00
ENDCHAR
STARTCHAR 0167
ENCODING 359
SWIDTH 617 0
DWIDTH 12 0
BBX 9 13 1 0
BITMAP
1800
1800
1800
FF80
FF80
1800
1800
7F00
1800
1800
1800
1C80
0F80
ENDCHAR
STARTCHAR 0168
ENCODING 360
SWIDTH 617 0
DWIDTH 12 0
BBX 9 17 1 0
BITMAP
3900
6F00
0000
0000
C180
C180
C180
C180
C180
C180
C180
C180
C180
C180
6180
7780
3F00
ENDCHAR
STARTCHAR 0169
ENCODING 361
SWIDTH 617 0
DWIDTH 12 0
BBX 10 14 1 0
BITMAP
3900
4F00
0000
0000
C180
C180
C180
C180
C180
C180
C180
6180
7780
3DC0
ENDCHAR
STARTCHAR 016A
ENCODING 362
SWIDTH 617 0
DWIDTH 12 0
BBX 9 16 1 0
BITMAP
3F00
0000
0000
C180
C180
C180
C180
C180
C180
C180
C180
C180
C180
6180
7780
3F00
ENDCHAR
STARTCHAR 016B
ENCODING 363
SWIDTH 617 0
DWIDTH 12 0
BBX 10 13 1 0
BITMAP
3F00
0000
0000
C180
C180
C180
C180
C180
C180
C180
6180
7780
3DC0
ENDCHAR
STARTCHAR 016C
ENCODING 364
SWIDTH 617 0
DWIDTH 12 0
BBX 9 17 1 0
BITMAP
2300
3E00
0000
0000
C180
C180
C180
C180
C180
C180
C180
C180
C180
C180
6180
7780
3F00
ENDCHAR
STARTCHAR 016D
ENCODING 365
SWIDTH 617 0
DWIDTH 12 0
BBX 10 14 1 0
BITMAP
6300
3E00
0800
0000
C180
C180
C180
C180
C180
C180
C180
6180
7780
3DC0
ENDCHAR
STARTCHAR 016E
ENCODING 366
SWIDTH 617 0
DWIDTH 12 0
BBX 9 18 1 0
BITMAP
1E00
1200
1600
0800
0000
C180
C180
C180
C180
C180
C180
C180
C180
C180
C180
6180
7780
3F00
ENDCHAR
STARTCHAR 016F
ENCODING 367
SWIDTH 617 0
DWIDTH 12 0
BBX 10 15 1 0
BITMAP
1C00
1200
1600
0800
0000
C180
C180
C180
C180
C180
C180
C180
6180
7780
3DC0
ENDCHAR
STARTCHAR 0170
ENCODING 368
SWIDTH 617 0
DWIDTH 12 0
BBX 9 17 1 0
BITMAP
0D80
1B00
2400
0000
C180
C180
C180
C180
C180
C180
C180
C180
C180
C180
6180
7780
3F00
ENDCHAR
STARTCHAR 0171
ENCODING 369
SWIDTH 617 0
DWIDTH 12 0
BBX 10 14 1 0
BITMAP
1F80
1200
2400
0000
C180
C180
C180
C180
C180
C180
C180
6180
7780
3DC0
ENDCHAR
STARTCHAR 0172
ENCODING 370
SWIDTH 617 0
DWIDTH 12 0
BBX 9 16 1 -3
BITMAP
C180
C180
C180
C180
C180
C180
C180
C180
C180
C180
6180
7780
3F00
0400
0C00
0700
ENDCHAR
STARTCHAR 0173
ENCODING 371
SWIDTH 617 0
DWIDTH 12 0
BBX 11 13 1 -3
BITMAP
C180
C180
C180
C180
C180
C180
C180
6180
7780
3DC0
0080
0080
00E0
ENDCHAR
STARTCHAR 0174
ENCODING 372
SWIDTH 617 0
DWIDTH 12 0
BBX 12 17 0 0
BITMAP
0E00
1980
0000
0000
C630
C620
C620
4E60
6F60
6B60
6B60
6940
6940
29C0
39C0
39C0
31C0
ENDCHAR
STARTCHAR 0175
ENCODING 373
SWIDTH 617 0
DWIDTH 12 0
BBX 12 15 0 0
BITMAP
0600
0F00
1900
1080
0000
C630
C620
4E20
4F60
6B60
6940
6940
39C0
39C0
31C0
ENDCHAR
STARTCHAR 0176
ENCODING 374
SWIDTH 617 0
DWIDTH 12 0
BBX 11 17 0 0
BITMAP
0E00
1980
0000
8000
6060
70C0
30C0
3980
1980
1F00
0F00
0600
0600
0600
0600
0600
0600
ENDCHAR
STARTCHAR 0177
ENCODING 375
SWIDTH 617 0
DWIDTH 12 0
BBX 10 19 1 -4
BITMAP
0C00
1E00
1300
2100
0000
C0C0
6180
6180
6300
3300
3200
1E00
1E00
1C00
0C00
0C00
1800
7000
6000
ENDCHAR
STARTCHAR 0178
ENCODING 376
SWIDTH 617 0
DWIDTH 12 0
BBX 11 17 0 0
BITMAP
1980
1980
0000
8000
6060
70C0
30C0
3980
1980
1F00
0F00
0600
0600
0600
0600
0600
0600
ENDCHAR
STARTCHAR 0179
ENCODING 377
SWIDTH 617 0
DWIDTH 12 0
BBX 10 17 1 0
BITMAP
0700
0C00
0000
0000
FFC0
0180
0300
0700
0600
0C00
1C00
1800
3800
3000
6000
FFC0
FFC0
ENDCHAR
STARTCHAR 017A
ENCODING 378
SWIDTH 617 0
DWIDTH 12 0
BBX 8 15 2 0
BITMAP
0C
08
18
10
00
FE
06
0C
0C
18
38
30
60
60
FF
ENDCHAR
STARTCHAR 017B
ENCODING 379
SWIDTH 617 0
DWIDTH 12 0
BBX 10 17 1 0
BITMAP
0C00
0C00
0000
0000
FFC0
0180
0300
0700
0600
0C00
1C00
1800
3800
3000
6000
FFC0
FFC0
ENDCHAR
STARTCHAR 017C
ENCODING 380
SWIDTH 617 0
DWIDTH 12 0
BBX 8 14 2 0
BITMAP
18
18
00
00
FE
06
0C
0C
18
38
30
60
60
FF
ENDCHAR
STARTCHAR 017D
ENCODING 381
SWIDTH 617 0
DWIDTH 12 0
BBX 10 17 1 0
BITMAP
3300
1E00
0000
0000
FFC0
0180
0300
0700
0600
0C00
1C00
1800
3800
3000
6000
FFC0
FFC0
ENDCHAR
STARTCHAR 017E
ENCODING 382
SWIDTH 617 0
DWIDTH 12 0
BBX 8 15 2 0
BITMAP
C6
64
38
18
00
FE
06
0C
0C
18
38
30
60
60
FF
ENDCHAR
STARTCHAR 017F
ENCODING 383
SWIDTH 617 0
DWIDTH 12 0
BBX 9 14 2 0
BITMAP
0F80
1880
3000
3000
F000
F000
3000
3000
3000
3000
3000
3000
FF00
FF00
ENDCHAR
STARTCHAR 018F
ENCODING 399
SWIDTH 617 0
DWIDTH 12 0
BBX 10 14 1 0
BITMAP
0C00
7F00
E380
C180
C0C0
00C0
00C0
FFC0
FFC0
C0C0
C0C0
E180
7380
3F00
ENDCHAR
STARTCHAR 0191
ENCODING 401
SWIDTH 617 0
DWIDTH 12 0
BBX 11 17 -1 -4
BITMAP
1FE0
1800
1800
1800
1800
1FC0
1FC0
1800
1800
1800
1800
1800
1800
1800
1800
F000
6000
ENDCHAR
STARTCHAR 0192
ENCODING 402
SWIDTH 617 0
DWIDTH 12 0
BBX 9 18 1 -4
BITMAP
0780
0E80
0C00
0C00
1F00
1F00
0C00
0800
1800
1800
1800
1800
1800
1800
1800
3000
F000
4000
ENDCHAR
STARTCHAR 0197
ENCODING 407
SWIDTH 617 0
DWIDTH 12 0
BBX 8 13 2 0
BITMAP
FF
18
18
18
18
18
7E
18
18
18
18
FF
FF
ENDCHAR
STARTCHAR 019D
ENCODING 413
SWIDTH 617 0
DWIDTH 12 0
BBX 11 17 -1 -4
BITMAP
3860
3860
3C60
3C60
3660
3660
3360
3360
31E0
31E0
30E0
30E0
3060
3000
3000
F000
6000
ENDCHAR
STARTCHAR 01A0
ENCODING 416
SWIDTH 617 0
DWIDTH 12 0
BBX 11 15 1 0
BITMAP
0060
0C40
7FC0
6380
C1C0
C0C0
C0C0
C0C0
C0C0
C0C0
C0C0
C0C0
C180
7380
3F00
ENDCHAR
STARTCHAR 01A1
ENCODING 417
SWIDTH 617 0
DWIDTH 12 0
BBX 11 12 1 0
BITMAP
0060
0060
3EC0
7380
6180
C180
C180
C180
C180
6180
7300
3E00
ENDCHAR
STARTCHAR 01AF
ENCODING 431
SWIDTH 617 0
DWIDTH 12 0
BBX 11 16 1 0
BITMAP
0060
0060
00C0
C180
C180
C180
C180
C180
C180
C180
C180
C180
C180
6180
7780
3F00
ENDCHAR
STARTCHAR 01B0
ENCODING 432
SWIDTH 617 0
DWIDTH 12 0
BBX 11 13 1 0
BITMAP
0060
0060
0040
C180
C180
C180
C180
C180
C180
C180
6180
7780
3DC0
ENDCHAR
STARTCHAR 01C4
ENCODING 452
SWIDTH 617 0
DWIDTH 12 0
BBX 10 17 1 0
BITMAP
02C0
0380
0000
0000
F7C0
98C0
8880
8880
8980
8980
8900
8B00
8B00
8A00
9E00
FFC0
F7C0
ENDCHAR
STARTCHAR 01C5
ENCODING 453
SWIDTH 617 0
DWIDTH 12 0
BBX 10 14 1 0
BITMAP
0240
F380
9980
8800
8BC0
88C0
8880
8980
8980
8900
8B00
9B00
FA00
F7C0
ENDCHAR
STARTCHAR 01C6
ENCODING 454
SWIDTH 617 0
DWIDTH 12 0
BBX 12 14 0 0
BITMAP
0530
04E0
04C0
0400
75E0
CC20
CC60
C440
C4C0
C480
C480
CD80
CD00
75F0
ENDCHAR
STARTCHAR 01C7
ENCODING 455
SWIDTH 617 0
DWIDTH 12 0
BBX 9 17 1 -4
BITMAP
C180
C180
C180
C180
C180
C180
C180
C180
C180
C180
C180
FD80
FD80
0180
3180
3F00
0E00
ENDCHAR
STARTCHAR 01C8
ENCODING 456
SWIDTH 617 0
DWIDTH 12 0
BBX 9 18 1 -4
BITMAP
0180
E180
E000
E000
E180
E180
E180
E180
E180
E180
E180
E180
FF80
FF80
0180
0180
1F00
0600
ENDCHAR
STARTCHAR 01C9
ENCODING 457
SWIDTH 617 0
DWIDTH 12 0
BBX 8 18 2 -4
BITMAP
C7
C7
C0
C0
CF
CF
C3
C3
C3
C3
C3
C3
C3
C3
03
03
3E
0C
ENDCHAR
STARTCHAR 01CA
ENCODING 458
SWIDTH 617 0
DWIDTH 12 0
BBX 9 17 1 -4
BITMAP
C580
E580
E580
E580
E580
F580
D580
D580
D580
CD80
CD80
CD80
CD80
0180
3180
3F80
0E00
ENDCHAR
STARTCHAR 01CB
ENCODING 459
SWIDTH 617 0
DWIDTH 12 0
BBX 10 18 1 -4
BITMAP
01C0
C5C0
E400
E400
E480
F480
D480
D480
D480
D480
CC80
CC80
CC80
CC80
0080
0080
0F80
0600
ENDCHAR
STARTCHAR 01CC
ENCODING 460
SWIDTH 617 0
DWIDTH 12 0
BBX 10 18 1 -4
BITMAP
01C0
01C0
0000
0000
B8C0
DCC0
CCC0
CCC0
CCC0
CCC0
CCC0
CCC0
CCC0
CCC0
00C0
00C0
0F80
0300
ENDCHAR
STARTCHAR 01CD
ENCODING 461
SWIDTH 617 0
DWIDTH 12 0
BBX 11 17 0 0
BITMAP
1980
0F00
0000
0000
0E00
0F00
0B00
1B00
1980
1980
3180
30C0
3FC0
7FC0
6060
6060
C060
ENDCHAR
STARTCHAR 01CE
ENCODING 462
SWIDTH 617 0
DWIDTH 12 0
BBX 10 15 1 0
BITMAP
6300
3600
1C00
0C00
0000
3E00
6300
4180
0180
1F80
7180
C180
C380
E780
7DC0
ENDCHAR
STARTCHAR 01CF
ENCODING 463
SWIDTH 617 0
DWIDTH 12 0
BBX 8 17 2 0
BITMAP
66
3C
00
00
FF
18
18
18
18
18
18
18
18
18
18
FF
FF
ENDCHAR
STARTCHAR 01D0
ENCODING 464
SWIDTH 617 0
DWIDTH 12 0
BBX 9 15 2 0
BITMAP
6300
2600
1C00
1800
0000
F800
F800
1800
1800
1800
1800
1800
1800
FF80
FF80
ENDCHAR
STARTCHAR 01D1
ENCODING 465
SWIDTH 617 0
DWIDTH 12 0
BBX 10 17 1 0
BITMAP
3300
1E00
0000
0C00
7F00
6380
C1C0
C0C0
C0C0
C0C0
C0C0
C0C0
C0C0
C0C0
C180
7380
3F00
ENDCHAR
STARTCHAR 01D2
ENCODING 466
SWIDTH 617 0
DWIDTH 12 0
BBX 9 15 1 0
BITMAP
6300
3200
1C00
0C00
0000
3E00
7300
6180
C180
C180
C180
C180
6180
7300
3E00
ENDCHAR
STARTCHAR 01D3
ENCODING 467
SWIDTH 617 0
DWIDTH 12 0
BBX 9 17 1 0
BITMAP
3300
1E00
0000
0000
C180
C180
C180
C180
C180
C180
C180
C180
C180
C180
6180
7780
3F00
ENDCHAR
STARTCHAR 01D4
ENCODING 468
SWIDTH 617 0
DWIDTH 12 0
BBX 10 15 1 0
BITMAP
6300
3600
1C00
0C00
0000
C180
C180
C180
C180
C180
C180
C180
6180
7780
3DC0
ENDCHAR
STARTCHAR 01D5
ENCODING 469
SWIDTH 617 0
DWIDTH 12 0
BBX 9 19 1 0
BITMAP
3F00
0000
3300
3300
0000
0000
C180
C180
C180
C180
C180
C180
C180
C180
C180
C180
6180
7780
3F00
ENDCHAR
STARTCHAR 01D6
ENCODING 470
SWIDTH 617 0
DWIDTH 12 0
BBX 10 16 1 0
BITMAP
3F00
0000
3700
3700
0000
0000
C180
C180
C180
C180
C180
C180
C180
6180
7780
3DC0
ENDCHAR
STARTCHAR 01D7
ENCODING 471
SWIDTH 617 0
DWIDTH 12 0
BBX 9 20 1 0
BITMAP
0700
0C00
0000
7300
7300
0000
0000
C180
C180
C180
C180
C180
C180
C180
C180
C180
C180
6180
7780
3F00
ENDCHAR
STARTCHAR 01D8
ENCODING 472
SWIDTH 617 0
DWIDTH 12 0
BBX 10 18 1 0
BITMAP
0700
0600
0C00
0000
7300
7300
0000
0000
C180
C180
C180
C180
C180
C180
C180
6180
7780
3DC0
ENDCHAR
STARTCHAR 01D9
ENCODING 473
SWIDTH 617 0
DWIDTH 12 0
BBX 9 20 1 0
BITMAP
7300
1E00
0000
7300
7300
0000
0000
C180
C180
C180
C180
C180
C180
C180
C180
C180
C180
6180
7780
3F00
ENDCHAR
STARTCHAR 01DA
ENCODING 474
SWIDTH 617 0
DWIDTH 12 0
BBX 10 17 1 0
BITMAP
7700
1C00
0000
7300
7300
0000
0000
C180
C180
C180
C180
C180
C180
C180
6180
7780
3DC0
ENDCHAR
STARTCHAR 01DB
ENCODING 475
SWIDTH 617 0
DWIDTH 12 0
BBX 9 20 1 0
BITMAP
3000
0C00
0000
7300
7300
0000
0000
C180
C180
C180
C180
C180
C180
C180
C180
C180
C180
6180
7780
3F00
ENDCHAR
STARTCHAR 01DC
ENCODING 476
SWIDTH 617 0
DWIDTH 12 0
BBX 10 18 1 0
BITMAP
3000
1800
0800
0000
7300
7300
0000
0000
C180
C180
C180
C180
C180
C180
C180
6180
7780
3DC0
ENDCHAR
STARTCHAR 01E4
ENCODING 484
SWIDTH 617 0
DWIDTH 12 0
BBX 11 14 1 0
BITMAP
0C00
7F00
6180
C1C0
C0C0
C000
C000
CFC0
C0C0
C0C0
C7E0
C1C0
73C0
3E40
ENDCHAR
STARTCHAR 01E5
ENCODING 485
SWIDTH 617 0
DWIDTH 12 0
BBX 12 16 0 -4
BITMAP
0060
0060
1FC0
31C0
30C0
30C0
30C0
1F80
3000
2000
3FC0
3FE0
FFF0
FFF0
7FE0
1F80
ENDCHAR
STARTCHAR 01E6
ENCODING 486
SWIDTH 617 0
DWIDTH 12 0
BBX 10 17 1 0
BITMAP
3300
1E00
0000
0C00
7F00
6180
C1C0
C0C0
C000
C000
CFC0
C0C0
C0C0
C0C0
C1C0
73C0
3E40
ENDCHAR
STARTCHAR 01E7
ENCODING 487
SWIDTH 617 0
DWIDTH 12 0
BBX 10 19 1 -4
BITMAP
6300
3200
1C00
0CC0
00C0
3F80
6380
6180
6180
6180
3F00
6000
4000
7F80
7FC0
C0C0
C0C0
FFC0
3F00
ENDCHAR
STARTCHAR 01EA
ENCODING 490
SWIDTH 617 0
DWIDTH 12 0
BBX 10 17 1 -3
BITMAP
0C00
7F00
6380
C1C0
C0C0
C0C0
C0C0
C0C0
C0C0
C0C0
C0C0
C180
7380
3F00
0400
0C00
0700
ENDCHAR
STARTCHAR 01EB
ENCODING 491
SWIDTH 617 0
DWIDTH 12 0
BBX 9 13 1 -3
BITMAP
3E00
7300
6180
C180
C180
C180
C180
6180
7300
3E00
0C00
0800
0F00
ENDCHAR
STARTCHAR 01FA
ENCODING 506
SWIDTH 617 0
DWIDTH 12 0
BBX 11 21 0 0
BITMAP
0300
0600
0000
0F00
0900
0B00
0600
0000
0E00
0F00
0B00
1B00
1980
1980
3180
30C0
3FC0
7FC0
6060
6060
C060
ENDCHAR
STARTCHAR 01FB
ENCODING 507
SWIDTH 617 0
DWIDTH 12 0
BBX 10 19 1 0
BITMAP
0600
0400
0800
0000
1C00
1200
1600
0800
0000
3E00
6300
4180
0180
1F80
7180
C180
C380
E780
7DC0
ENDCHAR
STARTCHAR 01FC
ENCODING 508
SWIDTH 617 0
DWIDTH 12 0
BBX 11 17 0 0
BITMAP
01C0
0300
0000
0000
0FE0
0F00
1B00
1B00
1B00
33C0
33C0
3300
7F00
7F00
6300
C3E0
C3E0
ENDCHAR
STARTCHAR 01FD
ENCODING 509
SWIDTH 617 0
DWIDTH 12 0
BBX 11 15 0 0
BITMAP
0300
0200
0600
0400
0000
39C0
6F60
4620
0620
3FE0
6600
C620
C620
CF60
7BC0
ENDCHAR
STARTCHAR 01FE
ENCODING 510
SWIDTH 617 0
DWIDTH 12 0
BBX 11 18 0 -1
BITMAP
0380
0600
0020
0660
3FC0
31C0
61E0
6160
6360
6260
6460
6C60
6860
7860
70C0
39C0
7F80
C000
ENDCHAR
STARTCHAR 01FF
ENCODING 511
SWIDTH 617 0
DWIDTH 12 0
BBX 9 16 1 -1
BITMAP
0600
0400
0C00
0800
0080
3F00
7300
6380
C580
CD80
C980
D180
7180
7300
7E00
C000
ENDCHAR
STARTCHAR 0200
ENCODING 512
SWIDTH 617 0
DWIDTH 12 0
BBX 11 17 0 0
BITMAP
7E00
1B00
0000
0000
0E00
0F00
0B00
1B00
1980
1980
3180
30C0
3FC0
7FC0
6060
6060
C060
ENDCHAR
STARTCHAR 0201
ENCODING 513
SWIDTH 617 0
DWIDTH 12 0
BBX 10 14 1 0
BITMAP
FC00
2400
1200
0000
3E00
6300
4180
0180
1F80
7180
C180
C380
E780
7DC0
ENDCHAR
STARTCHAR 0202
ENCODING 514
SWIDTH 617 0
DWIDTH 12 0
BBX 11 17 0 0
BITMAP
1F80
3080
0040
0000
0E00
0F00
0B00
1B00
1980
1980
3180
30C0
3FC0
7FC0
6060
6060
C060
ENDCHAR
STARTCHAR 0203
ENCODING 515
SWIDTH 617 0
DWIDTH 12 0
BBX 10 14 1 0
BITMAP
3E00
6100
4100
0000
3E00
6300
4180
0180
1F80
7180
C180
C380
E780
7DC0
ENDCHAR
STARTCHAR 0204
ENCODING 516
SWIDTH 617 0
DWIDTH 12 0
BBX 9 17 2 0
BITMAP
D800
6C00
0000
0000
FF00
C000
C000
C000
C000
FF00
FF00
C000
C000
C000
C000
FF00
FF80
ENDCHAR
STARTCHAR 0205
ENCODING 517
SWIDTH 617 0
DWIDTH 12 0
BBX 9 14 1 0
BITMAP
6C00
3600
0000
0000
3E00
7300
6180
C180
FF80
C000
C180
6180
7380
3F00
ENDCHAR
STARTCHAR 0206
ENCODING 518
SWIDTH 617 0
DWIDTH 12 0
BBX 9 17 2 0
BITMAP
7E00
4300
8000
0000
FF00
C000
C000
C000
C000
FF00
FF00
C000
C000
C000
C000
FF00
FF80
ENDCHAR
STARTCHAR 0207
ENCODING 519
SWIDTH 617 0
DWIDTH 12 0
BBX 9 14 1 0
BITMAP
3F00
2100
6180
0000
3E00
7300
6180
C180
FF80
C000
C180
6180
7380
3F00
ENDCHAR
STARTCHAR 0208
ENCODING 520
SWIDTH 617 0
DWIDTH 12 0
BBX 9 17 1 0
BITMAP
FC00
3600
0000
0000
7F80
0C00
0C00
0C00
0C00
0C00
0C00
0C00
0C00
0C00
0C00
7F80
7F80
ENDCHAR
STARTCHAR 0209
ENCODING 521
SWIDTH 617 0
DWIDTH 12 0
BBX 9 14 2 0
BITMAP
D800
6C00
1200
0000
F800
F800
1800
1800
1800
1800
1800
1800
FF80
FF80
ENDCHAR
STARTCHAR 020A
ENCODING 522
SWIDTH 617 0
DWIDTH 12 0
BBX 8 17 2 0
BITMAP
7E
C2
01
00
FF
18
18
18
18
18
18
18
18
18
18
FF
FF
ENDCHAR
STARTCHAR 020B
ENCODING 523
SWIDTH 617 0
DWIDTH 12 0
BBX 9 14 2 0
BITMAP
3E00
4300
4100
0000
F800
F800
1800
1800
1800
1800
1800
1800
FF80
FF80
ENDCHAR
STARTCHAR 020C
ENCODING 524
SWIDTH 617 0
DWIDTH 12 0
BBX 10 17 1 0
BITMAP
FC00
3600
0000
0C00
7F00
6380
C1C0
C0C0
C0C0
C0C0
C0C0
C0C0
C0C0
C0C0
C180
7380
3F00
ENDCHAR
STARTCHAR 020D
ENCODING 525
SWIDTH 617 0
DWIDTH 12 0
BBX 9 14 1 0
BITMAP
EC00
3600
0000
0000
3E00
7300
6180
C180
C180
C180
C180
6180
7300
3E00
ENDCHAR
STARTCHAR 020E
ENCODING 526
SWIDTH 617 0
DWIDTH 12 0
BBX 10 17 1 0
BITMAP
3F00
6100
0080
0C00
7F00
6380
C1C0
C0C0
C0C0
C0C0
C0C0
C0C0
C0C0
C0C0
C180
7380
3F00
ENDCHAR
STARTCHAR 020F
ENCODING 527
SWIDTH 617 0
DWIDTH 12 0
BBX 9 14 1 0
BITMAP
3F00
6100
6100
0000
3E00
7300
6180
C180
C180
C180
C180
6180
7300
3E00
ENDCHAR
STARTCHAR 0210
ENCODING 528
SWIDTH 617 0
DWIDTH 12 0
BBX 11 17 1 0
BITMAP
EC00
3600
0000
0000
FF80
C1C0
C0C0
C0C0
C0C0
C180
FF00
C380
C1C0
C0C0
C0C0
C0C0
C0E0
ENDCHAR
STARTCHAR 0211
ENCODING 529
SWIDTH 617 0
DWIDTH 12 0
BBX 10 14 1 0
BITMAP
6C00
3600
0100
0000
F780
FDC0
38C0
30C0
3000
3000
3000
3000
FF80
FF80
ENDCHAR
STARTCHAR 0212
ENCODING 530
SWIDTH 617 0
DWIDTH 12 0
BBX 11 17 1 0
BITMAP
3F00
6180
0000
0000
FF80
C1C0
C0C0
C0C0
C0C0
C180
FF00
C380
C1C0
C0C0
C0C0
C0C0
C0E0
ENDCHAR
STARTCHAR 0213
ENCODING 531
SWIDTH 617 0
DWIDTH 12 0
BBX 10 14 1 0
BITMAP
3F00
2180
2180
0000
F780
FDC0
38C0
30C0
3000
3000
3000
3000
FF80
FF80
ENDCHAR
STARTCHAR 0214
ENCODING 532
SWIDTH 617 0
DWIDTH 12 0
BBX 9 17 1 0
BITMAP
FC00
3600
0000
0000
C180
C180
C180
C180
C180
C180
C180
C180
C180
C180
6180
7780
3F00
ENDCHAR
STARTCHAR 0215
ENCODING 533
SWIDTH 617 0
DWIDTH 12 0
BBX 10 14 1 0
BITMAP
FC00
2400
1200
0000
C180
C180
C180
C180
C180
C180
C180
6180
7780
3DC0
ENDCHAR
STARTCHAR 0216
ENCODING 534
SWIDTH 617 0
DWIDTH 12 0
BBX 9 17 1 0
BITMAP
3F00
6100
0080
0000
C180
C180
C180
C180
C180
C180
C180
C180
C180
C180
6180
7780
3F00
ENDCHAR
STARTCHAR 0217
ENCODING 535
SWIDTH 617 0
DWIDTH 12 0
BBX 10 14 1 0
BITMAP
3E00
6100
4100
0000
C180
C180
C180
C180
C180
C180
C180
6180
7780
3DC0
ENDCHAR
STARTCHAR 0218
ENCODING 536
SWIDTH 617 0
DWIDTH 12 0
BBX 10 20 1 -6
BITMAP
0C00
7F00
E180
C0C0
C000
E000
7E00
1F80
03C0
00C0
C0C0
C0C0
FF80
3F00
0000
0C00
0C00
0C00
0400
0800
ENDCHAR
STARTCHAR 0219
ENCODING 537
SWIDTH 617 0
DWIDTH 12 0
BBX 8 16 2 -6
BITMAP
7E
C7
C3
C0
FC
1F
03
83
C3
7E
00
18
18
18
08
10
ENDCHAR
STARTCHAR 021A
ENCODING 538
SWIDTH 617 0
DWIDTH 12 0
BBX 10 19 1 -6
BITMAP
FFC0
0C00
0C00
0C00
0C00
0C00
0C00
0C00
0C00
0C00
0C00
0C00
0C00
0000
0C00
0C00
0C00
0400
0800
ENDCHAR
STARTCHAR 021B
ENCODING 539
SWIDTH 617 0
DWIDTH 12 0
BBX 9 19 1 -6
BITMAP
1800
1800
1800
FF80
FF80
1800
1800
1800
1800
1800
1800
1C80
0F80
0000
0600
0600
0600
0200
0400
ENDCHAR
STARTCHAR 022A
ENCODING 554
SWIDTH 617 0
DWIDTH 12 0
BBX 10 19 1 0
BITMAP
3F00
0000
3300
3300
0000
0C00
7F00
6380
C1C0
C0C0
C0C0
C0C0
C0C0
C0C0
C0C0
C0C0
C180
7380
3F00
ENDCHAR
STARTCHAR 022B
ENCODING 555
SWIDTH 617 0
DWIDTH 12 0
BBX 9 16 1 0
BITMAP
3F00
0000
3300
3300
0000
0000
3E00
7300
6180
C180
C180
C180
C180
6180
7300
3E00
ENDCHAR
STARTCHAR 022C
ENCODING 556
SWIDTH 617 0
DWIDTH 12 0
BBX 10 19 1 0
BITMAP
3F00
0000
3980
4F00
0000
0C00
7F00
6380
C1C0
C0C0
C0C0
C0C0
C0C0
C0C0
C0C0
C0C0
C180
7380
3F00
ENDCHAR
STARTCHAR 022D
ENCODING 557
SWIDTH 617 0
DWIDTH 12 0
BBX 9 16 1 0
BITMAP
3F00
0000
3980
4F00
0000
0000
3E00
7300
6180
C180
C180
C180
C180
6180
7300
3E00
ENDCHAR
STARTCHAR 0230
ENCODING 560
SWIDTH 617 0
DWIDTH 12 0
BBX 10 19 1 0
BITMAP
3F00
0000
0C00
0C00
0000
0C00
7F00
6380
C1C0
C0C0
C0C0
C0C0
C0C0
C0C0
C0C0
C0C0
C180
7380
3F00
ENDCHAR
STARTCHAR 0231
ENCODING 561
SWIDTH 617 0
DWIDTH 12 0
BBX 9 16 1 0
BITMAP
3F00
0000
0C00
0C00
0000
0000
3E00
7300
6180
C180
C180
C180
C180
6180
7300
3E00
ENDCHAR
STARTCHAR 0232
ENCODING 562
SWIDTH 617 0
DWIDTH 12 0
BBX 11 16 0 0
BITMAP
1F80
0000
8000
6060
70C0
30C0
3980
1980
1F00
0F00
0600
0600
0600
0600
0600
0600
ENDCHAR
STARTCHAR 0233
ENCODING 563
SWIDTH 617 0
DWIDTH 12 0
BBX 10 17 1 -4
BITMAP
3F00
0000
0000
C0C0
6180
6180
6300
3300
3200
1E00
1E00
1C00
0C00
0C00
1800
7000
6000
ENDCHAR
STARTCHAR 0237
ENCODING 567
SWIDTH 617 0
DWIDTH 12 0
BBX 5 14 2 -4
BITMAP
F8
F8
18
18
18
18
18
18
18
18
18
18
F8
60
ENDCHAR
STARTCHAR 0244
ENCODING 580
SWIDTH 617 0
DWIDTH 12 0
BBX 12 13 0 0
BITMAP
60C0
60C0
60C0
60C0
60C0
FFF0
60C0
60C0
60C0
60C0
30C0
3BC0
1F80
ENDCHAR
STARTCHAR 0259
ENCODING 601
SWIDTH 617 0
DWIDTH 12 0
BBX 9 10 1 0
BITMAP
3E00
6380
4180
C180
0180
FF80
C180
6180
7300
3E00
ENDCHAR
STARTCHAR 0268
ENCODING 616
SWIDTH 617 0
DWIDTH 12 0
BBX 9 14 2 0
BITMAP
1800
1800
0000
0000
F800
F800
1800
1800
7F00
1800
1800
1800
FF80
FF80
ENDCHAR
STARTCHAR 026A
ENCODING 618
SWIDTH 617 0
DWIDTH 12 0
BBX 6 10 3 0
BITMAP
FC
FC
30
30
30
30
30
30
FC
FC
ENDCHAR
STARTCHAR 0272
ENCODING 626
SWIDTH 617 0
DWIDTH 12 0
BBX 11 14 -1 -4
BITMAP
17C0
1CE0
1860
1860
1860
1860
1860
1860
1860
1860
1800
1800
F000
6000
ENDCHAR
STARTCHAR 0289
ENCODING 649
SWIDTH 617 0
DWIDTH 12 0
BBX 11 10 0 0
BITMAP
60C0
60C0
60C0
60C0
FFE0
60C0
60C0
30C0
3BC0
1EE0
ENDCHAR
STARTCHAR 02B9
ENCODING 697
SWIDTH 617 0
DWIDTH 12 0
BBX 3 3 4 11
BITMAP
60
40
C0
ENDCHAR
STARTCHAR 02BA
ENCODING 698
SWIDTH 617 0
DWIDTH 12 0
BBX 6 3 3 11
BITMAP
6C
D8
D8
ENDCHAR
STARTCHAR 02BC
ENCODING 700
SWIDTH 617 0
DWIDTH 12 0
BBX 2 4 5 11
BITMAP
C0
C0
40
80
ENDCHAR
STARTCHAR 02C6
ENCODING 710
SWIDTH 617 0
DWIDTH 12 0
BBX 6 4 3 11
BITMAP
30
78
C8
8C
ENDCHAR
STARTCHAR 02C7
ENCODING 711
SWIDTH 617 0
DWIDTH 12 0
BBX 7 4 2 11
BITMAP
C6
64
38
18
ENDCHAR
STARTCHAR 02C9
ENCODING 713
SWIDTH 617 0
DWIDTH 12 0
BBX 6 1 3 13
BITMAP
FC
ENDCHAR
STARTCHAR 02CD
ENCODING 717
SWIDTH 617 0
DWIDTH 12 0
BBX 6 1 3 -3
BITMAP
FC
ENDCHAR
STARTCHAR 02D8
ENCODING 728
SWIDTH 617 0
DWIDTH 12 0
BBX 7 3 2 11
BITMAP
C6
7C
10
ENDCHAR
STARTCHAR 02D9
ENCODING 729
SWIDTH 617 0
DWIDTH 12 0
BBX 2 2 5 12
BITMAP
C0
C0
ENDCHAR
STARTCHAR 02DA
ENCODING 730
SWIDTH 617 0
DWIDTH 12 0
BBX 4 4 4 11
BITMAP
F0
90
B0
60
ENDCHAR
STARTCHAR 02DB
ENCODING 731
SWIDTH 617 0
DWIDTH 12 0
BBX 4 3 4 -3
BITMAP
C0
80
F0
ENDCHAR
STARTCHAR 02DC
ENCODING 732
SWIDTH 617 0
DWIDTH 12 0
BBX 7 2 2 12
BITMAP
72
DE
ENDCHAR
STARTCHAR 02DD
ENCODING 733
SWIDTH 617 0
DWIDTH 12 0
BBX 7 2 2 12
BITMAP
36
EC
ENDCHAR
STARTCHAR 0300
ENCODING 768
SWIDTH 0 0
DWIDTH 0 0
BBX 3 4 4 11
BITMAP
C0
40
60
20
ENDCHAR
STARTCHAR 0301
ENCODING 769
SWIDTH 0 0
DWIDTH 0 0
BBX 3 4 4 11
BITMAP
20
60
40
C0
ENDCHAR
STARTCHAR 0302
ENCODING 770
SWIDTH 0 0
DWIDTH 0 0
BBX 6 4 3 11
BITMAP
30
78
C8
8C
ENDCHAR
STARTCHAR 0303
ENCODING 771
SWIDTH 0 0
DWIDTH 0 0
BBX 7 2 2 12
BITMAP
72
DE
ENDCHAR
STARTCHAR 0304
ENCODING 772
SWIDTH 0 0
DWIDTH 0 0
BBX 6 1 3 12
BITMAP
FC
ENDCHAR
STARTCHAR 0306
ENCODING 774
SWIDTH 0 0
DWIDTH 0 0
BBX 7 3 2 11
BITMAP
C6
7C
10
ENDCHAR
STARTCHAR 0307
ENCODING 775
SWIDTH 0 0
DWIDTH 0 0
BBX 2 2 5 12
BITMAP
C0
C0
ENDCHAR
STARTCHAR 0308
ENCODING 776
SWIDTH 0 0
DWIDTH 0 0
BBX 6 2 3 12
BITMAP
CC
CC
ENDCHAR
STARTCHAR 0309
ENCODING 777
SWIDTH 0 0
DWIDTH 0 0
BBX 4 4 4 11
BITMAP
E0
30
20
60
ENDCHAR
STARTCHAR 030A
ENCODING 778
SWIDTH 0 0
DWIDTH 0 0
BBX 4 4 4 11
BITMAP
F0
90
B0
60
ENDCHAR
STARTCHAR 030B
ENCODING 779
SWIDTH 0 0
DWIDTH 0 0
BBX 7 2 2 12
BITMAP
36
EC
ENDCHAR
STARTCHAR 030C
ENCODING 780
SWIDTH 0 0
DWIDTH 0 0
BBX 7 4 2 11
BITMAP
C6
64
38
18
ENDCHAR
STARTCHAR 030F
ENCODING 783
SWIDTH 0 0
DWIDTH 0 0
BBX 7 2 2 12
BITMAP
EC
36
ENDCHAR
STARTCHAR 0311
ENCODING 785
SWIDTH 0 0
DWIDTH 0 0
BBX 7 3 2 11
BITMAP
7E
C2
C2
ENDCHAR
STARTCHAR 0312
ENCODING 786
SWIDTH 0 0
DWIDTH 0 0
BBX 2 5 5 12
BITMAP
40
80
80
C0
C0
ENDCHAR
STARTCHAR 0313
ENCODING 787
SWIDTH 0 0
DWIDTH 0 0
BBX 2 4 5 12
BITMAP
C0
C0
40
80
ENDCHAR
STARTCHAR 031B
ENCODING 795
SWIDTH 0 0
DWIDTH 0 0
BBX 4 4 4 9
BITMAP
30
20
60
C0
ENDCHAR
STARTCHAR 0323
ENCODING 803
SWIDTH 0 0
DWIDTH 0 0
BBX 2 1 5 -3
BITMAP
C0
ENDCHAR
STARTCHAR 0324
ENCODING 804
SWIDTH 0 0
DWIDTH 0 0
BBX 6 2 3 -4
BITMAP
CC
CC
ENDCHAR
STARTCHAR 0326
ENCODING 806
SWIDTH 0 0
DWIDTH 0 0
BBX 2 5 5 -6
BITMAP
C0
C0
C0
40
80
ENDCHAR
STARTCHAR 0327
ENCODING 807
SWIDTH 0 0
DWIDTH 0 0
BBX 4 3 4 -4
BITMAP
70
10
E0
ENDCHAR
STARTCHAR 0328
ENCODING 808
SWIDTH 0 0
DWIDTH 0 0
BBX 4 3 4 -3
BITMAP
C0
80
F0
ENDCHAR
STARTCHAR 032E
ENCODING 814
SWIDTH 0 0
DWIDTH 0 0
BBX 7 3 2 -4
BITMAP
C2
C2
7C
ENDCHAR
STARTCHAR 0330
ENCODING 816
SWIDTH 0 0
DWIDTH 0 0
BBX 7 2 2 -3
BITMAP
72
DE
ENDCHAR
STARTCHAR 0331
ENCODING 817
SWIDTH 0 0
DWIDTH 0 0
BBX 6 1 3 -3
BITMAP
FC
ENDCHAR
STARTCHAR 0335
ENCODING 821
SWIDTH 0 0
DWIDTH 0 0
BBX 8 1 2 6
BITMAP
FF
ENDCHAR
STARTCHAR 0336
ENCODING 822
SWIDTH 0 0
DWIDTH 0 0
BBX 12 1 0 7
BITMAP
FFF0
ENDCHAR
STARTCHAR 0337
ENCODING 823
SWIDTH 0 0
DWIDTH 0 0
BBX 8 5 2 5
BITMAP
01
07
1C
70
C0
ENDCHAR
STARTCHAR 0338
ENCODING 824
SWIDTH 0 0
DWIDTH 0 0
BBX 9 12 1 -1
BITMAP
0080
0100
0300
0200
0400
0C00
0800
1000
1000
2000
6000
C000
ENDCHAR
STARTCHAR 0394
ENCODING 916
SWIDTH 617 0
DWIDTH 12 0
BBX 10 13 1 0
BITMAP
1C00
1E00
1600
3600
3300
3300
6300
6180
6180
C180
C0C0
FFC0
FFC0
ENDCHAR
STARTCHAR 03A9
ENCODING 937
SWIDTH 617 0
DWIDTH 12 0
BBX 11 14 0 0
BITMAP
0400
3F80
70C0
6060
6060
6060
E060
E060
6060
6060
6060
2040
F0E0
F9E0
ENDCHAR
STARTCHAR 03BC
ENCODING 956
SWIDTH 617 0
DWIDTH 12 0
BBX 10 13 1 -3
BITMAP
C180
C180
C180
C180
C180
C180
C180
E180
F780
FDC0
C000
C000
C000
ENDCHAR
STARTCHAR 03C0
ENCODING 960
SWIDTH 617 0
DWIDTH 12 0
BBX 11 10 0 0
BITMAP
FFE0
5880
1080
1080
3080
3080
3080
3080
30C0
60C0
ENDCHAR
STARTCHAR 1E24
ENCODING 7716
SWIDTH 617 0
DWIDTH 12 0
BBX 9 16 1 -3
BITMAP
C180
C180
C180
C180
C180
FF80
FF80
C180
C180
C180
C180
C180
C180
0000
0000
0C00
ENDCHAR
STARTCHAR 1E25
ENCODING 7717
SWIDTH 617 0
DWIDTH 12 0
BBX 8 17 2 -3
BITMAP
C0
C0
C0
C0
FE
E7
C3
C3
C3
C3
C3
C3
C3
C3
00
00
18
ENDCHAR
STARTCHAR 1E62
ENCODING 7778
SWIDTH 617 0
DWIDTH 12 0
BBX 10 17 1 -3
BITMAP
0C00
7F00
E180
C0C0
C000
E000
7E00
1F80
03C0
00C0
C0C0
C0C0
FF80
3F00
0000
0000
0C00
ENDCHAR
STARTCHAR 1E63
ENCODING 7779
SWIDTH 617 0
DWIDTH 12 0
BBX 8 13 2 -3
BITMAP
7E
C7
C3
C0
FC
1F
03
83
C3
7E
00
00
18
ENDCHAR
STARTCHAR 1E6C
ENCODING 7788
SWIDTH 617 0
DWIDTH 12 0
BBX 10 16 1 -3
BITMAP
FFC0
0C00
0C00
0C00
0C00
0C00
0C00
0C00
0C00
0C00
0C00
0C00
0C00
0000
0000
0C00
ENDCHAR
STARTCHAR 1E6D
ENCODING 7789
SWIDTH 617 0
DWIDTH 12 0
BBX 9 16 1 -3
BITMAP
1800
1800
1800
FF80
FF80
1800
1800
1800
1800
1800
1800
1C80
0F80
0000
0000
0600
ENDCHAR
STARTCHAR 1E80
ENCODING 7808
SWIDTH 617 0
DWIDTH 12 0
BBX 12 17 0 0
BITMAP
1800
0C00
0200
0000
C630
C620
C620
4E60
6F60
6B60
6B60
6940
6940
29C0
39C0
39C0
31C0
ENDCHAR
STARTCHAR 1E81
ENCODING 7809
SWIDTH 617 0
DWIDTH 12 0
BBX 12 15 0 0
BITMAP
0800
0C00
0400
0600
0000
C630
C620
4E20
4F60
6B60
6940
6940
39C0
39C0
31C0
ENDCHAR
STARTCHAR 1E82
ENCODING 7810
SWIDTH 617 0
DWIDTH 12 0
BBX 12 17 0 0
BITMAP
0380
0600
0000
0000
C630
C620
C620
4E60
6F60
6B60
6B60
6940
6940
29C0
39C0
39C0
31C0
ENDCHAR
STARTCHAR 1E83
ENCODING 7811
SWIDTH 617 0
DWIDTH 12 0
BBX 12 15 0 0
BITMAP
0300
0200
0600
0400
0000
C630
C620
4E20
4F60
6B60
6940
6940
39C0
39C0
31C0
ENDCHAR
STARTCHAR 1E84
ENCODING 7812
SWIDTH 617 0
DWIDTH 12 0
BBX 12 17 0 0
BITMAP
1980
1980
0000
0000
C630
C620
C620
4E60
6F60
6B60
6B60
6940
6940
29C0
39C0
39C0
31C0
ENDCHAR
STARTCHAR 1E85
ENCODING 7813
SWIDTH 617 0
DWIDTH 12 0
BBX 12 14 0 0
BITMAP
1980
1980
0000
0000
C630
C620
4E20
4F60
6B60
6940
6940
39C0
39C0
31C0
ENDCHAR
STARTCHAR 1E9E
ENCODING 7838
SWIDTH 617 0
DWIDTH 12 0
BBX 10 14 1 0
BITMAP
0C00
3F00
6180
60C0
C0C0
C180
CF80
CF00
C180
C0C0
C0C0
C0C0
CF80
CF00
ENDCHAR
STARTCHAR 1EA0
ENCODING 7840
SWIDTH 617 0
DWIDTH 12 0
BBX 11 16 0 -3
BITMAP
0E00
0F00
0B00
1B00
1980
1980
3180
30C0
3FC0
7FC0
6060
6060
C060
0000
0000
0600
ENDCHAR
STARTCHAR 1EA1
ENCODING 7841
SWIDTH 617 0
DWIDTH 12 0
BBX 10 13 1 -3
BITMAP
3E00
6300
4180
0180
1F80
7180
C180
C380
E780
7DC0
0000
0000
0C00
ENDCHAR
STARTCHAR 1EA2
ENCODING 7842
SWIDTH 617 0
DWIDTH 12 0
BBX 11 19 0 0
BITMAP
0400
0F00
0100
0600
0000
0000
0E00
0F00
0B00
1B00
1980
1980
3180
30C0
3FC0
7FC0
6060
6060
C060
ENDCHAR
STARTCHAR 1EA3
ENCODING 7843
SWIDTH 617 0
DWIDTH 12 0
BBX 10 15 1 0
BITMAP
1C00
0600
0600
0C00
0000
3E00
6300
4180
0180
1F80
7180
C180
C380
E780
7DC0
ENDCHAR
STARTCHAR 1EA4
ENCODING 7844
SWIDTH 617 0
DWIDTH 12 0
BBX 11 20 0 0
BITMAP
0380
0600
0000
0E00
1980
2000
0000
0E00
0F00
0B00
1B00
1980
1980
3180
30C0
3FC0
7FC0
6060
6060
C060
ENDCHAR
STARTCHAR 1EA5
ENCODING 7845
SWIDTH 617 0
DWIDTH 12 0
BBX 10 18 1 0
BITMAP
0700
0400
0C00
0000
1C00
3600
4100
0000
3E00
6300
4180
0180
1F80
7180
C180
C380
E780
7DC0
ENDCHAR
STARTCHAR 1EA6
ENCODING 7846
SWIDTH 617 0
DWIDTH 12 0
BBX 11 20 0 0
BITMAP
1C00
0400
0200
0E00
1980
2000
0000
0E00
0F00
0B00
1B00
1980
1980
3180
30C0
3FC0
7FC0
6060
6060
C060
ENDCHAR
STARTCHAR 1EA7
ENCODING 7847
SWIDTH 617 0
DWIDTH 12 0
BBX 10 18 1 0
BITMAP
3000
1000
0800
0000
1C00
3600
4100
0000
3E00
6300
4180
0180
1F80
7180
C180
C380
E780
7DC0
ENDCHAR
STARTCHAR 1EA8
ENCODING 7848
SWIDTH 617 0
DWIDTH 12 0
BBX 11 21 0 0
BITMAP
0700
0100
0200
0000
0E00
1980
2000
0000
0E00
0F00
0B00
1B00
1980
1980
3180
30C0
3FC0
7FC0
6060
6060
C060
ENDCHAR
STARTCHAR 1EA9
ENCODING 7849
SWIDTH 617 0
DWIDTH 12 0
BBX 10 19 1 0
BITMAP
0C00
1600
0400
0800
0000
1C00
3600
4100
0000
3E00
6300
4180
0180
1F80
7180
C180
C380
E780
7DC0
ENDCHAR
STARTCHAR 1EAA
ENCODING 7850
SWIDTH 617 0
DWIDTH 12 0
BBX 11 20 0 0
BITMAP
1C80
3780
0000
0E00
1980
2000
0000
0E00
0F00
0B00
1B00
1980
1980
3180
30C0
3FC0
7FC0
6060
6060
C060
ENDCHAR
STARTCHAR 1EAB
ENCODING 7851
SWIDTH 617 0
DWIDTH 12 0
BBX 10 17 1 0
BITMAP
3F00
4E00
0000
1C00
3600
4100
0000
3E00
6300
4180
0180
1F80
7180
C180
C380
E780
7DC0
ENDCHAR
STARTCHAR 1EAC
ENCODING 7852
SWIDTH 617 0
DWIDTH 12 0
BBX 11 20 0 -3
BITMAP
0E00
1980
0000
0000
0E00
0F00
0B00
1B00
1980
1980
3180
30C0
3FC0
7FC0
6060
6060
C060
0000
0000
0600
ENDCHAR
STARTCHAR 1EAD
ENCODING 7853
SWIDTH 617 0
DWIDTH 12 0
BBX 10 18 1 -3
BITMAP
0C00
1C00
3200
6300
0000
3E00
6300
4180
0180
1F80
7180
C180
C380
E780
7DC0
0000
0000
0C00
ENDCHAR
STARTCHAR 1EAE
ENCODING 7854
SWIDTH 617 0
DWIDTH 12 0
BBX 11 20 0 0
BITMAP
0380
0200
0400
3080
1F00
0000
0000
0E00
0F00
0B00
1B00
1980
1980
3180
30C0
3FC0
7FC0
6060
6060
C060
ENDCHAR
STARTCHAR 1EAF
ENCODING 7855
SWIDTH 617 0
DWIDTH 12 0
BBX 10 17 1 0
BITMAP
0600
0C00
0800
6100
3E00
0000
0000
3E00
6300
4180
0180
1F80
7180
C180
C380
E780
7DC0
ENDCHAR
STARTCHAR 1EB0
ENCODING 7856
SWIDTH 617 0
DWIDTH 12 0
BBX 11 20 0 0
BITMAP
1800
0C00
0600
3080
1F00
0000
0000
0E00
0F00
0B00
1B00
1980
1980
3180
30C0
3FC0
7FC0
6060
6060
C060
ENDCHAR
STARTCHAR 1EB1
ENCODING 7857
SWIDTH 617 0
DWIDTH 12 0
BBX 10 17 1 0
BITMAP
3000
1800
0C00
6300
3E00
0000
0000
3E00
6300
4180
0180
1F80
7180
C180
C380
E780
7DC0
ENDCHAR
STARTCHAR 1EB2
ENCODING 7858
SWIDTH 617 0
DWIDTH 12 0
BBX 11 21 0 0
BITMAP
0600
0300
0200
0400
3080
1F00
0000
0000
0E00
0F00
0B00
1B00
1980
1980
3180
30C0
3FC0
7FC0
6060
6060
C060
ENDCHAR
STARTCHAR 1EB3
ENCODING 7859
SWIDTH 617 0
DWIDTH 12 0
BBX 10 18 1 0
BITMAP
1C00
0400
0C00
0000
6300
3E00
0000
0000
3E00
6300
4180
0180
1F80
7180
C180
C380
E780
7DC0
ENDCHAR
STARTCHAR 1EB4
ENCODING 7860
SWIDTH 617 0
DWIDTH 12 0
BBX 11 20 0 0
BITMAP
1E80
3780
0000
3080
1F00
0000
0000
0E00
0F00
0B00
1B00
1980
1980
3180
30C0
3FC0
7FC0
6060
6060
C060
ENDCHAR
STARTCHAR 1EB5
ENCODING 7861
SWIDTH 617 0
DWIDTH 12 0
BBX 10 17 1 0
BITMAP
3F00
4E00
0000
6300
3E00
0000
0000
3E00
6300
4180
0180
1F80
7180
C180
C380
E780
7DC0
ENDCHAR
STARTCHAR 1EB6
ENCODING 7862
SWIDTH 617 0
DWIDTH 12 0
BBX 11 20 0 -3
BITMAP
1180
1F00
0000
0000
0E00
0F00
0B00
1B00
1980
1980
3180
30C0
3FC0
7FC0
6060
6060
C060
0000
0000
0600
ENDCHAR
STARTCHAR 1EB7
ENCODING 7863
SWIDTH 617 0
DWIDTH 12 0
BBX 10 17 1 -3
BITMAP
6300
3E00
0800
0000
3E00
6300
4180
0180
1F80
7180
C180
C380
E780
7DC0
0000
0000
0C00
ENDCHAR
STARTCHAR 1EB8
ENCODING 7864
SWIDTH 617 0
DWIDTH 12 0
BBX 9 16 2 -3
BITMAP
FF00
C000
C000
C000
C000
FF00
FF00
C000
C000
C000
C000
FF00
FF80
0000
0000
1800
ENDCHAR
STARTCHAR 1EB9
ENCODING 7865
SWIDTH 617 0
DWIDTH 12 0
BBX 9 13 1 -3
BITMAP
3E00
7300
6180
C180
FF80
C000
C180
6180
7380
3F00
0000
0000
0C00
ENDCHAR
STARTCHAR 1EBA
ENCODING 7866
SWIDTH 617 0
DWIDTH 12 0
BBX 9 19 2 0
BITMAP
1800
1C00
0400
0C00
0000
0000
FF00
C000
C000
C000
C000
FF00
FF00
C000
C000
C000
C000
FF00
FF80
ENDCHAR
STARTCHAR 1EBB
ENCODING 7867
SWIDTH 617 0
DWIDTH 12 0
BBX 9 15 1 0
BITMAP
1E00
0200
0200
0C00
0000
3E00
7300
6180
C180
FF80
C000
C180
6180
7380
3F00
ENDCHAR
STARTCHAR 1EBC
ENCODING 7868
SWIDTH 617 0
DWIDTH 12 0
BBX 9 17 2 0
BITMAP
7B00
4E00
0000
0000
FF00
C000
C000
C000
C000
FF00
FF00
C000
C000
C000
C000
FF00
FF80
ENDCHAR
STARTCHAR 1EBD
ENCODING 7869
SWIDTH 617 0
DWIDTH 12 0
BBX 9 14 1 0
BITMAP
3900
6F00
0000
0000
3E00
7300
6180
C180
FF80
C000
C180
6180
7380
3F00
ENDCHAR
STARTCHAR 1EBE
ENCODING 7870
SWIDTH 617 0
DWIDTH 12 0
BBX 9 20 2 0
BITMAP
0E00
1800
0000
1C00
6600
0100
0000
FF00
C000
C000
C000
C000
FF00
FF00
C000
C000
C000
C000
FF00
FF80
ENDCHAR
STARTCHAR 1EBF
ENCODING 7871
SWIDTH 617 0
DWIDTH 12 0
BBX 9 18 1 0
BITMAP
0300
0600
0C00
0000
1E00
3300
0000
0000
3E00
7300
6180
C180
FF80
C000
C180
6180
7380
3F00
ENDCHAR
STARTCHAR 1EC0
ENCODING 7872
SWIDTH 617 0
DWIDTH 12 0
BBX 9 20 2 0
BITMAP
7000
1800
0000
1C00
6600
0100
0000
FF00
C000
C000
C000
C000
FF00
FF00
C000
C000
C000
C000
FF00
FF80
ENDCHAR
STARTCHAR 1EC1
ENCODING 7873
SWIDTH 617 0
DWIDTH 12 0
BBX 9 18 1 0
BITMAP
3000
1800
0C00
0000
1E00
3300
0000
0000
3E00
7300
6180
C180
FF80
C000
C180
6180
7380
3F00
ENDCHAR
STARTCHAR 1EC2
ENCODING 7874
SWIDTH 617 0
DWIDTH 12 0
BBX 9 21 2 0
BITMAP
1C00
0400
0800
0000
1C00
6600
0100
0000
FF00
C000
C000
C000
C000
FF00
FF00
C000
C000
C000
C000
FF00
FF80
ENDCHAR
STARTCHAR 1EC3
ENCODING 7875
SWIDTH 617 0
DWIDTH 12 0
BBX 9 19 1 0
BITMAP
0C00
1200
0200
0400
0000
1E00
3300
0000
0000
3E00
7300
6180
C180
FF80
C000
C180
6180
7380
3F00
ENDCHAR
STARTCHAR 1EC4
ENCODING 7876
SWIDTH 617 0
DWIDTH 12 0
BBX 9 20 2 0
BITMAP
7B00
5E00
0000
1C00
6600
0100
0000
FF00
C000
C000
C000
C000
FF00
FF00
C000
C000
C000
C000
FF00
FF80
ENDCHAR
STARTCHAR 1EC5
ENCODING 7877
SWIDTH 617 0
DWIDTH 12 0
BBX 9 17 1 0
BITMAP
3F80
6700
0000
1E00
3300
0000
0000
3E00
7300
6180
C180
FF80
C000
C180
6180
7380
3F00
ENDCHAR
STARTCHAR 1EC6
ENCODING 7878
SWIDTH 617 0
DWIDTH 12 0
BBX 9 20 2 -3
BITMAP
3C00
6600
0000
0000
FF00
C000
C000
C000
C000
FF00
FF00
C000
C000
C000
C000
FF00
FF80
0000
0000
1800
ENDCHAR
STARTCHAR 1EC7
ENCODING 7879
SWIDTH 617 0
DWIDTH 12 0
BBX 9 18 1 -3
BITMAP
0C00
1E00
3200
2100
0000
3E00
7300
6180
C180
FF80
C000
C180
6180
7380
3F00
0000
0000
0C00
ENDCHAR
STARTCHAR 1EC8
ENCODING 7880
SWIDTH 617 0
DWIDTH 12 0
BBX 8 19 2 0
BITMAP
10
3C
04
18
00
00
FF
18
18
18
18
18
18
18
18
18
18
FF
FF
ENDCHAR
STARTCHAR 1EC9
ENCODING 7881
SWIDTH 617 0
DWIDTH 12 0
BBX 9 15 2 0
BITMAP
1C00
0400
0400
0800
0000
F800
F800
1800
1800
1800
1800
1800
1800
FF80
FF80
ENDCHAR
STARTCHAR 1ECA
ENCODING 7882
SWIDTH 617 0
DWIDTH 12 0
BBX 8 16 2 -3
BITMAP
FF
18
18
18
18
18
18
18
18
18
18
FF
FF
00
00
18
ENDCHAR
STARTCHAR 1ECB
ENCODING 7883
SWIDTH 617 0
DWIDTH 12 0
BBX 9 17 2 -3
BITMAP
1800
1800
0000
0000
F800
F800
1800
1800
1800
1800
1800
1800
FF80
FF80
0000
0000
1C00
ENDCHAR
STARTCHAR 1ECC
ENCODING 7884
SWIDTH 617 0
DWIDTH 12 0
BBX 10 17 1 -3
BITMAP
0C00
7F00
6380
C1C0
C0C0
C0C0
C0C0
C0C0
C0C0
C0C0
C0C0
C180
7380
3F00
0000
0000
0C00
ENDCHAR
STARTCHAR 1ECD
ENCODING 7885
SWIDTH 617 0
DWIDTH 12 0
BBX 9 13 1 -3
BITMAP
3E00
7300
6180
C180
C180
C180
C180
6180
7300
3E00
0000
0000
0C00
ENDCHAR
STARTCHAR 1ECE
ENCODING 7886
SWIDTH 617 0
DWIDTH 12 0
BBX 10 19 1 0
BITMAP
0800
1E00
0200
0C00
0000
0C00
7F00
6380
C1C0
C0C0
C0C0
C0C0
C0C0
C0C0
C0C0
C0C0
C180
7380
3F00
ENDCHAR
STARTCHAR 1ECF
ENCODING 7887
SWIDTH 617 0
DWIDTH 12 0
BBX 9 15 1 0
BITMAP
1C00
0600
0600
0C00
0000
3E00
7300
6180
C180
C180
C180
C180
6180
7300
3E00
ENDCHAR
STARTCHAR 1ED0
ENCODING 7888
SWIDTH 617 0
DWIDTH 12 0
BBX 10 20 1 0
BITMAP
0700
0C00
0000
1C00
3300
4000
0C00
7F00
6380
C1C0
C0C0
C0C0
C0C0
C0C0
C0C0
C0C0
C0C0
C180
7380
3F00
ENDCHAR
STARTCHAR 1ED1
ENCODING 7889
SWIDTH 617 0
DWIDTH 12 0
BBX 9 18 1 0
BITMAP
0300
0600
0C00
0000
1C00
3200
4100
0000
3E00
7300
6180
C180
C180
C180
C180
6180
7300
3E00
ENDCHAR
STARTCHAR 1ED2
ENCODING 7890
SWIDTH 617 0
DWIDTH 12 0
BBX 10 20 1 0
BITMAP
3800
0800
0400
1C00
3300
4000
0C00
7F00
6380
C1C0
C0C0
C0C0
C0C0
C0C0
C0C0
C0C0
C0C0
C180
7380
3F00
ENDCHAR
STARTCHAR 1ED3
ENCODING 7891
SWIDTH 617 0
DWIDTH 12 0
BBX 9 18 1 0
BITMAP
3000
1800
0C00
0000
1C00
3200
4100
0000
3E00
7300
6180
C180
C180
C180
C180
6180
7300
3E00
ENDCHAR
STARTCHAR 1ED4
ENCODING 7892
SWIDTH 617 0
DWIDTH 12 0
BBX 10 21 1 0
BITMAP
0E00
0200
0400
0000
1C00
3300
4000
0C00
7F00
6380
C1C0
C0C0
C0C0
C0C0
C0C0
C0C0
C0C0
C0C0
C180
7380
3F00
ENDCHAR
STARTCHAR 1ED5
ENCODING 7893
SWIDTH 617 0
DWIDTH 12 0
BBX 9 19 1 0
BITMAP
0C00
1600
0600
0400
0000
1C00
3200
4100
0000
3E00
7300
6180
C180
C180
C180
C180
6180
7300
3E00
ENDCHAR
STARTCHAR 1ED6
ENCODING 7894
SWIDTH 617 0
DWIDTH 12 0
BBX 10 20 1 0
BITMAP
3900
6F00
0000
1C00
3300
4000
0C00
7F00
6380
C1C0
C0C0
C0C0
C0C0
C0C0
C0C0
C0C0
C0C0
C180
7380
3F00
ENDCHAR
STARTCHAR 1ED7
ENCODING 7895
SWIDTH 617 0
DWIDTH 12 0
BBX 9 17 1 0
BITMAP
3F00
4700
0000
1C00
3200
4100
0000
3E00
7300
6180
C180
C180
C180
C180
6180
7300
3E00
ENDCHAR
STARTCHAR 1ED8
ENCODING 7896
SWIDTH 617 0
DWIDTH 12 0
BBX 10 20 1 -3
BITMAP
1C00
3300
0000
0C00
7F00
6380
C1C0
C0C0
C0C0
C0C0
C0C0
C0C0
C0C0
C0C0
C180
7380
3F00
0000
0000
0C00
ENDCHAR
STARTCHAR 1ED9
ENCODING 7897
SWIDTH 617 0
DWIDTH 12 0
BBX 9 18 1 -3
BITMAP
0C00
1E00
3200
2300
0000
3E00
7300
6180
C180
C180
C180
C180
6180
7300
3E00
0000
0000
0C00
ENDCHAR
STARTCHAR 1EDA
ENCODING 7898
SWIDTH 617 0
DWIDTH 12 0
BBX 11 17 1 0
BITMAP
0700
0C00
0060
0C40
7FC0
6380
C1C0
C0C0
C0C0
C0C0
C0C0
C0C0
C0C0
C0C0
C180
7380
3F00
ENDCHAR
STARTCHAR 1EDB
ENCODING 7899
SWIDTH 617 0
DWIDTH 12 0
BBX 11 15 1 0
BITMAP
0600
0400
0C00
0860
0060
3EC0
7380
6180
C180
C180
C180
C180
6180
7300
3E00
ENDCHAR
STARTCHAR 1EDC
ENCODING 7900
SWIDTH 617 0
DWIDTH 12 0
BBX 11 17 1 0
BITMAP
3000
1800
0460
0C40
7FC0
6380
C1C0
C0C0
C0C0
C0C0
C0C0
C0C0
C0C0
C0C0
C180
7380
3F00
ENDCHAR
STARTCHAR 1EDD
ENCODING 7901
SWIDTH 617 0
DWIDTH 12 0
BBX 11 15 1 0
BITMAP
3000
1800
0800
0C60
0060
3EC0
7380
6180
C180
C180
C180
C180
6180
7300
3E00
ENDCHAR
STARTCHAR 1EDE
ENCODING 7902
SWIDTH 617 0
DWIDTH 12 0
BBX 11 19 1 0
BITMAP
0800
1E00
0200
0C00
0060
0C40
7FC0
6380
C1C0
C0C0
C0C0
C0C0
C0C0
C0C0
C0C0
C0C0
C180
7380
3F00
ENDCHAR
STARTCHAR 1EDF
ENCODING 7903
SWIDTH 617 0
DWIDTH 12 0
BBX 11 15 1 0
BITMAP
1C00
0600
0600
0C60
0060
3EC0
7380
6180
C180
C180
C180
C180
6180
7300
3E00
ENDCHAR
STARTCHAR 1EE0
ENCODING 7904
SWIDTH 617 0
DWIDTH 12 0
BBX 11 17 1 0
BITMAP
3900
2E00
0060
0C40
7F80
6380
C1C0
C0C0
C0C0
C0C0
C0C0
C0C0
C0C0
C0C0
C180
7380
3F00
ENDCHAR
STARTCHAR 1EE1
ENCODING 7905
SWIDTH 617 0
DWIDTH 12 0
BBX 11 14 1 0
BITMAP
3900
2E00
0060
0060
3EC0
7380
6180
C180
C180
C180
C180
6180
7300
3E00
ENDCHAR
STARTCHAR 1EE2
ENCODING 7906
SWIDTH 617 0
DWIDTH 12 0
BBX 11 18 1 -3
BITMAP
0060
0C40
7FC0
6380
C1C0
C0C0
C0C0
C0C0
C0C0
C0C0
C0C0
C0C0
C180
7380
3F00
0000
0000
0C00
ENDCHAR
STARTCHAR 1EE3
ENCODING 7907
SWIDTH 617 0
DWIDTH 12 0
BBX 11 15 1 -3
BITMAP
0060
0060
3EC0
7380
6180
C180
C180
C180
C180
6180
7300
3E00
0000
0000
0C00
ENDCHAR
STARTCHAR 1EE4
ENCODING 7908
SWIDTH 617 0
DWIDTH 12 0
BBX 9 16 1 -3
BITMAP
C180
C180
C180
C180
C180
C180
C180
C180
C180
C180
6180
7780
3F00
0000
0000
0C00
ENDCHAR
STARTCHAR 1EE5
ENCODING 7909
SWIDTH 617 0
DWIDTH 12 0
BBX 10 13 1 -3
BITMAP
C180
C180
C180
C180
C180
C180
C180
6180
7780
3DC0
0000
0000
0C00
ENDCHAR
STARTCHAR 1EE6
ENCODING 7910
SWIDTH 617 0
DWIDTH 12 0
BBX 9 19 1 0
BITMAP
0800
1E00
0200
0C00
0000
0000
C180
C180
C180
C180
C180
C180
C180
C180
C180
C180
6180
7780
3F00
ENDCHAR
STARTCHAR 1EE7
ENCODING 7911
SWIDTH 617 0
DWIDTH 12 0
BBX 10 15 1 0
BITMAP
1C00
0600
0600
0C00
0000
C180
C180
C180
C180
C180
C180
C180
6180
7780
3DC0
ENDCHAR
STARTCHAR 1EE8
ENCODING 7912
SWIDTH 617 0
DWIDTH 12 0
BBX 11 17 1 0
BITMAP
0700
0C60
0060
00C0
C180
C180
C180
C180
C180
C180
C180
C180
C180
C180
6180
7780
3F00
ENDCHAR
STARTCHAR 1EE9
ENCODING 7913
SWIDTH 617 0
DWIDTH 12 0
BBX 11 15 1 0
BITMAP
0600
0400
0C60
0860
0040
C180
C180
C180
C180
C180
C180
C180
6180
7780
3DC0
ENDCHAR
STARTCHAR 1EEA
ENCODING 7914
SWIDTH 617 0
DWIDTH 12 0
BBX 11 17 1 0
BITMAP
3000
1860
0460
00C0
C180
C180
C180
C180
C180
C180
C180
C180
C180
C180
6180
7780
3F00
ENDCHAR
STARTCHAR 1EEB
ENCODING 7915
SWIDTH 617 0
DWIDTH 12 0
BBX 11 15 1 0
BITMAP
3000
1800
0860
0C60
0040
C180
C180
C180
C180
C180
C180
C180
6180
7780
3DC0
ENDCHAR
STARTCHAR 1EEC
ENCODING 7916
SWIDTH 617 0
DWIDTH 12 0
BBX 11 19 1 0
BITMAP
0800
1E00
0200
0C60
0060
00C0
C180
C180
C180
C180
C180
C180
C180
C180
C180
C180
6180
7780
3F00
ENDCHAR
STARTCHAR 1EED
ENCODING 7917
SWIDTH 617 0
DWIDTH 12 0
BBX 11 15 1 0
BITMAP
1C00
0600
0660
0C60
0040
C180
C180
C180
C180
C180
C180
C180
6180
7780
3DC0
ENDCHAR
STARTCHAR 1EEE
ENCODING 7918
SWIDTH 617 0
DWIDTH 12 0
BBX 11 17 1 0
BITMAP
3900
6F60
0060
00C0
C180
C180
C180
C180
C180
C180
C180
C180
C180
C180
6180
7780
3F00
ENDCHAR
STARTCHAR 1EEF
ENCODING 7919
SWIDTH 617 0
DWIDTH 12 0
BBX 11 14 1 0
BITMAP
3900
2E60
4060
0040
C180
C180
C180
C180
C180
C180
C180
6180
7780
3DC0
ENDCHAR
STARTCHAR 1EF0
ENCODING 7920
SWIDTH 617 0
DWIDTH 12 0
BBX 11 19 1 -3
BITMAP
0060
0060
00C0
C180
C180
C180
C180
C180
C180
C180
C180
C180
C180
6180
7780
3F00
0000
0000
0C00
ENDCHAR
STARTCHAR 1EF1
ENCODING 7921
SWIDTH 617 0
DWIDTH 12 0
BBX 11 16 1 -3
BITMAP
0060
0060
0040
C180
C180
C180
C180
C180
C180
C180
6180
7780
3DC0
0000
0000
0C00
ENDCHAR
STARTCHAR 1EF2
ENCODING 7922
SWIDTH 617 0
DWIDTH 12 0
BBX 11 17 0 0
BITMAP
1800
0C00
0200
8000
6060
70C0
30C0
3980
1980
1F00
0F00
0600
0600
0600
0600
0600
0600
ENDCHAR
STARTCHAR 1EF3
ENCODING 7923
SWIDTH 617 0
DWIDTH 12 0
BBX 10 19 1 -4
BITMAP
1800
1800
0800
0400
0000
C0C0
6180
6180
6300
3300
3200
1E00
1E00
1C00
0C00
0C00
1800
7000
6000
ENDCHAR
STARTCHAR 1EF4
ENCODING 7924
SWIDTH 617 0
DWIDTH 12 0
BBX 11 16 0 -3
BITMAP
E060
70C0
30C0
3980
1980
1F00
0F00
0600
0600
0600
0600
0600
0600
0000
0000
0600
ENDCHAR
STARTCHAR 1EF5
ENCODING 7925
SWIDTH 617 0
DWIDTH 12 0
BBX 10 14 1 -4
BITMAP
C0C0
6180
6180
6300
3300
3200
1E00
1E00
1C00
0C00
0C00
1800
71C0
6000
ENDCHAR
STARTCHAR 1EF6
ENCODING 7926
SWIDTH 617 0
DWIDTH 12 0
BBX 11 19 0 0
BITMAP
0400
0F00
0100
0600
0000
8000
6060
70C0
30C0
3980
1980
1F00
0F00
0600
0600
0600
0600
0600
0600
ENDCHAR
STARTCHAR 1EF7
ENCODING 7927
SWIDTH 617 0
DWIDTH 12 0
BBX 10 19 1 -4
BITMAP
0E00
0200
0200
0C00
0000
C0C0
6180
6180
6300
3300
3200
1E00
1E00
1C00
0C00
0C00
1800
7000
6000
ENDCHAR
STARTCHAR 1EF8
ENCODING 7928
SWIDTH 617 0
DWIDTH 12 0
BBX 11 17 0 0
BITMAP
1C80
3780
0000
8000
6060
70C0
30C0
3980
1980
1F00
0F00
0600
0600
0600
0600
0600
0600
ENDCHAR
STARTCHAR 1EF9
ENCODING 7929
SWIDTH 617 0
DWIDTH 12 0
BBX 10 18 1 -4
BITMAP
3D80
2F00
4000
0000
C0C0
6180
6180
6300
3300
3200
1E00
1E00
1C00
0C00
0C00
1800
7000
6000
ENDCHAR
STARTCHAR 2009
ENCODING 8201
SWIDTH 617 0
DWIDTH 12 0
BBX 0 0 0 0
BITMAP
ENDCHAR
STARTCHAR 2010
ENCODING 8208
SWIDTH 617 0
DWIDTH 12 0
BBX 5 2 3 4
BITMAP
F8
F8
ENDCHAR
STARTCHAR 2011
ENCODING 8209
SWIDTH 617 0
DWIDTH 12 0
BBX 5 2 3 4
BITMAP
F8
F8
ENDCHAR
STARTCHAR 2013
ENCODING 8211
SWIDTH 617 0
DWIDTH 12 0
BBX 8 2 2 4
BITMAP
FF
FF
ENDCHAR
STARTCHAR 2014
ENCODING 8212
SWIDTH 617 0
DWIDTH 12 0
BBX 12 2 0 4
BITMAP
FFF0
FFF0
ENDCHAR
STARTCHAR 2018
ENCODING 8216
SWIDTH 617 0
DWIDTH 12 0
BBX 2 5 5 8
BITMAP
C0
80
C0
C0
C0
ENDCHAR
STARTCHAR 2019
ENCODING 8217
SWIDTH 617 0
DWIDTH 12 0
BBX 2 6 5 8
BITMAP
C0
C0
C0
40
C0
80
ENDCHAR
STARTCHAR 201A
ENCODING 8218
SWIDTH 617 0
DWIDTH 12 0
BBX 2 6 5 -3
BITMAP
C0
C0
C0
40
C0
80
ENDCHAR
STARTCHAR 201C
ENCODING 8220
SWIDTH 617 0
DWIDTH 12 0
BBX 6 5 3 8
BITMAP
CC
88
CC
CC
CC
ENDCHAR
STARTCHAR 201D
ENCODING 8221
SWIDTH 617 0
DWIDTH 12 0
BBX 6 6 3 8
BITMAP
CC
CC
CC
44
48
88
ENDCHAR
STARTCHAR 201E
ENCODING 8222
SWIDTH 617 0
DWIDTH 12 0
BBX 6 6 3 -3
BITMAP
CC
CC
CC
44
48
88
ENDCHAR
STARTCHAR 2020
ENCODING 8224
SWIDTH 617 0
DWIDTH 12 0
BBX 9 16 1 -3
BITMAP
0C00
0C00
0800
FF80
FF80
0800
0800
0800
0C00
0C00
0C00
0C00
0C00
0C00
0C00
0C00
ENDCHAR
STARTCHAR 2021
ENCODING 8225
SWIDTH 617 0
DWIDTH 12 0
BBX 9 16 1 -3
BITMAP
0C00
0C00
0800
FF80
FF80
0800
0C00
0C00
0C00
0C00
0800
FB80
FF80
0800
0C00
0C00
ENDCHAR
STARTCHAR 2022
ENCODING 8226
SWIDTH 617 0
DWIDTH 12 0
BBX 6 6 3 4
BITMAP
30
78
FC
FC
FC
78
ENDCHAR
STARTCHAR 2026
ENCODING 8230
SWIDTH 617 0
DWIDTH 12 0
BBX 10 2 1 0
BITMAP
CCC0
CCC0
ENDCHAR
STARTCHAR 2030
ENCODING 8240
SWIDTH 617 0
DWIDTH 12 0
BBX 11 13 0 0
BITMAP
7800
4C00
4C00
4C00
7800
1000
FFE0
31C0
4B60
4E20
4E20
4B60
39C0
ENDCHAR
STARTCHAR 2032
ENCODING 8242
SWIDTH 617 0
DWIDTH 12 0
BBX 3 3 4 10
BITMAP
60
40
C0
ENDCHAR
STARTCHAR 2033
ENCODING 8243
SWIDTH 617 0
DWIDTH 12 0
BBX 6 3 3 10
BITMAP
FC
D8
D8
ENDCHAR
STARTCHAR 2039
ENCODING 8249
SWIDTH 617 0
DWIDTH 12 0
BBX 4 7 4 3
BITMAP
30
60
40
C0
40
60
30
ENDCHAR
STARTCHAR 203A
ENCODING 8250
SWIDTH 617 0
DWIDTH 12 0
BBX 4 7 4 3
BITMAP
C0
40
60
30
60
40
C0
ENDCHAR
STARTCHAR 2044
ENCODING 8260
SWIDTH 617 0
DWIDTH 12 0
BBX 12 13 0 0
BITMAP
0030
0040
0080
0180
0300
0000
0000
0000
0800
1000
2000
6000
C000
ENDCHAR
STARTCHAR 2052
ENCODING 8274
SWIDTH 617 0
DWIDTH 12 0
BBX 11 17 0 -3
BITMAP
0020
0060
30C0
30C0
0180
0100
0300
0200
0600
0400
0C00
1800
1000
30C0
20C0
60C0
C000
ENDCHAR
STARTCHAR 2070
ENCODING 8304
SWIDTH 617 0
DWIDTH 12 0
BBX 5 8 3 8
BITMAP
30
58
C8
C8
C8
C8
48
70
ENDCHAR
STARTCHAR 2074
ENCODING 8308
SWIDTH 617 0
DWIDTH 12 0
BBX 5 7 3 8
BITMAP
20
50
50
90
F8
10
10
ENDCHAR
STARTCHAR 2075
ENCODING 8309
SWIDTH 617 0
DWIDTH 12 0
BBX 5 7 3 8
BITMAP
78
40
F8
C8
08
88
70
ENDCHAR
STARTCHAR 2076
ENCODING 8310
SWIDTH 617 0
DWIDTH 12 0
BBX 5 8 3 8
BITMAP
20
D8
88
B0
C8
88
C8
70
ENDCHAR
STARTCHAR 2077
ENCODING 8311
SWIDTH 617 0
DWIDTH 12 0
BBX 5 7 3 8
BITMAP
F8
18
10
20
20
60
60
ENDCHAR
STARTCHAR 2078
ENCODING 8312
SWIDTH 617 0
DWIDTH 12 0
BBX 6 8 3 8
BITMAP
20
58
C8
48
78
8C
C8
78
ENDCHAR
STARTCHAR 2079
ENCODING 8313
SWIDTH 617 0
DWIDTH 12 0
BBX 5 8 3 8
BITMAP
20
D8
88
88
78
08
88
70
ENDCHAR
STARTCHAR 207F
ENCODING 8319
SWIDTH 617 0
DWIDTH 12 0
BBX 6 7 3 7
BITMAP
10
F8
CC
CC
CC
CC
CC
ENDCHAR
STARTCHAR 2080
ENCODING 8320
SWIDTH 617 0
DWIDTH 12 0
BBX 5 8 3 -4
BITMAP
30
58
C8
C8
C8
C8
48
70
ENDCHAR
STARTCHAR 2081
ENCODING 8321
SWIDTH 617 0
DWIDTH 12 0
BBX 5 7 3 -4
BITMAP
E0
20
20
20
20
20
F8
ENDCHAR
STARTCHAR 2082
ENCODING 8322
SWIDTH 617 0
DWIDTH 12 0
BBX 5 8 3 -4
BITMAP
30
58
88
08
18
60
C0
F8
ENDCHAR
STARTCHAR 2083
ENCODING 8323
SWIDTH 617 0
DWIDTH 12 0
BBX 5 8 3 -4
BITMAP
20
58
88
18
38
08
C8
78
ENDCHAR
STARTCHAR 2084
ENCODING 8324
SWIDTH 617 0
DWIDTH 12 0
BBX 5 7 3 -4
BITMAP
20
50
50
90
F8
10
10
ENDCHAR
STARTCHAR 2085
ENCODING 8325
SWIDTH 617 0
DWIDTH 12 0
BBX 5 7 3 -4
BITMAP
78
40
F8
C8
08
88
70
ENDCHAR
STARTCHAR 2086
ENCODING 8326
SWIDTH 617 0
DWIDTH 12 0
BBX 5 8 3 -4
BITMAP
20
D8
88
B0
C8
88
C8
70
ENDCHAR
STARTCHAR 2087
ENCODING 8327
SWIDTH 617 0
DWIDTH 12 0
BBX 5 7 3 -4
BITMAP
F8
18
10
20
20
60
60
ENDCHAR
STARTCHAR 2088
ENCODING 8328
SWIDTH 617 0
DWIDTH 12 0
BBX 6 8 3 -4
BITMAP
20
58
C8
48
78
8C
C8
78
ENDCHAR
STARTCHAR 2089
ENCODING 8329
SWIDTH 617 0
DWIDTH 12 0
BBX 5 8 3 -4
BITMAP
20
D8
88
88
78
08
88
70
ENDCHAR
STARTCHAR 2099
ENCODING 8345
SWIDTH 617 0
DWIDTH 12 0
BBX 6 7 3 -3
BITMAP
10
F8
CC
CC
CC
CC
CC
ENDCHAR
STARTCHAR 20A1
ENCODING 8353
SWIDTH 617 0
DWIDTH 12 0
BBX 10 16 1 -1
BITMAP
0240
02C0
1F80
3C80
6580
CD00
C900
CA00
D200
D600
F400
E400
7C00
7D00
5F00
5800
ENDCHAR
STARTCHAR 20A3
ENCODING 8355
SWIDTH 617 0
DWIDTH 12 0
BBX 10 13 0 0
BITMAP
3FC0
3000
3000
3000
3000
3F80
3F80
3000
3000
FE00
3000
3000
3000
ENDCHAR
STARTCHAR 20A4
ENCODING 8356
SWIDTH 617 0
DWIDTH 12 0
BBX 10 14 1 0
BITMAP
0600
1F80
31C0
30C0
3000
3000
FE00
3000
3000
FE00
2000
2000
FF80
FF80
ENDCHAR
STARTCHAR 20A6
ENCODING 8358
SWIDTH 617 0
DWIDTH 12 0
BBX 11 13 0 0
BITMAP
70C0
70C0
78C0
78C0
FFE0
6CC0
66C0
66C0
FFE0
63C0
61C0
61C0
60C0
ENDCHAR
STARTCHAR 20A7
ENCODING 8359
SWIDTH 617 0
DWIDTH 12 0
BBX 12 13 0 0
BITMAP
7FC0
60E0
6060
FFF0
6060
60E0
7FC0
7F00
6000
6000
6000
6000
6000
ENDCHAR
STARTCHAR 20A9
ENCODING 8361
SWIDTH 617 0
DWIDTH 12 0
BBX 12 13 0 0
BITMAP
C630
C620
C620
4E60
FFF0
6B60
6B60
6940
FFF0
29C0
39C0
39C0
31C0
ENDCHAR
STARTCHAR 20AB
ENCODING 8363
SWIDTH 617 0
DWIDTH 12 0
BBX 10 17 1 -3
BITMAP
0180
0FC0
0FC0
0180
3D80
6380
C180
C180
C180
C180
C180
C180
6380
3D80
0000
0000
FF80
ENDCHAR
STARTCHAR 20AC
ENCODING 8364
SWIDTH 617 0
DWIDTH 12 0
BBX 9 14 1 0
BITMAP
0100
0F80
1C00
3800
3000
FE00
FE00
6000
FE00
3000
3000
3800
1F80
0780
ENDCHAR
STARTCHAR 20AD
ENCODING 8365
SWIDTH 617 0
DWIDTH 12 0
BBX 11 13 0 0
BITMAP
60E0
60C0
6180
6380
6300
FFE0
FFE0
6700
6300
6180
61C0
60C0
6060
ENDCHAR
STARTCHAR 20B1
ENCODING 8369
SWIDTH 617 0
DWIDTH 12 0
BBX 12 13 0 0
BITMAP
7FC0
60E0
E070
6060
E070
60E0
7FC0
7F00
6000
6000
6000
6000
6000
ENDCHAR
STARTCHAR 20B2
ENCODING 8370
SWIDTH 617 0
DWIDTH 12 0
BBX 10 16 1 -1
BITMAP
0C00
0C00
7F00
6D80
CCC0
CCC0
CC00
CC00
CFC0
CCC0
CCC0
CCC0
CDC0
7FC0
3E40
0C00
ENDCHAR
STARTCHAR 20B5
ENCODING 8373
SWIDTH 617 0
DWIDTH 12 0
BBX 10 16 1 -1
BITMAP
0300
0E00
7F00
6380
C580
C4C0
C4C0
CC00
C800
C800
D8C0
D0C0
D180
7380
3F00
2000
ENDCHAR
STARTCHAR 20B9
ENCODING 8377
SWIDTH 617 0
DWIDTH 12 0
BBX 11 13 1 0
BITMAP
FFE0
0600
0300
FFC0
0300
0600
FE00
E000
7000
3800
1C00
0E00
0700
ENDCHAR
STARTCHAR 20BA
ENCODING 8378
SWIDTH 617 0
DWIDTH 12 0
BBX 9 13 1 0
BITMAP
6000
6000
6400
7C00
7000
E400
FC00
7000
E180
E180
6180
7F80
7F00
ENDCHAR
STARTCHAR 20BC
ENCODING 8380
SWIDTH 617 0
DWIDTH 12 0
BBX 11 15 0 0
BITMAP
0400
0600
3F80
74C0
6460
6460
C460
C460
C460
C460
C460
C460
C460
C060
C060
ENDCHAR
STARTCHAR 20BD
ENCODING 8381
SWIDTH 617 0
DWIDTH 12 0
BBX 11 13 0 0
BITMAP
7FC0
60E0
6060
6060
6060
60E0
FFC0
6000
6000
FC00
6000
6000
6000
ENDCHAR
STARTCHAR 2113
ENCODING 8467
SWIDTH 617 0
DWIDTH 12 0
BBX 8 14 1 0
BITMAP
0C
1F
31
31
31
31
31
32
FE
F0
30
30
32
1E
ENDCHAR
STARTCHAR 2116
ENCODING 8470
SWIDTH 617 0
DWIDTH 12 0
BBX 10 13 1 0
BITMAP
C800
C800
C800
E800
E980
AA40
AA40
AA40
BA40
9A40
99C0
9800
9BC0
ENDCHAR
STARTCHAR 2117
ENCODING 8471
SWIDTH 617 0
DWIDTH 12 0
BBX 12 14 0 0
BITMAP
0E00
1180
2040
5F20
99A0
98A0
9890
9F10
9810
9820
5820
4020
2040
1F80
ENDCHAR
STARTCHAR 2122
ENCODING 8482
SWIDTH 617 0
DWIDTH 12 0
BBX 11 7 0 6
BITMAP
F660
2660
2660
2560
25A0
25A0
25A0
ENDCHAR
STARTCHAR 2126
ENCODING 8486
SWIDTH 617 0
DWIDTH 12 0
BBX 11 14 0 0
BITMAP
0400
3F80
70C0
6060
6060
6060
E060
E060
6060
6060
6060
2040
F0E0
F9E0
ENDCHAR
STARTCHAR 212E
ENCODING 8494
SWIDTH 617 0
DWIDTH 12 0
BBX 12 14 0 0
BITMAP
0400
3F80
60C0
6060
E060
E060
E060
FFF0
E000
E000
6000
6020
3060
1F80
ENDCHAR
STARTCHAR 2202
ENCODING 8706
SWIDTH 617 0
DWIDTH 12 0
BBX 9 14 1 0
BITMAP
1800
1F00
0380
0180
0180
0180
7F80
6380
C180
C180
C180
C180
7300
3E00
ENDCHAR
STARTCHAR 2205
ENCODING 8709
SWIDTH 617 0
DWIDTH 12 0
BBX 10 10 1 2
BITMAP
0080
3FC0
6180
C380
C6C0
8CC0
D8C0
F080
6380
FE00
ENDCHAR
STARTCHAR 2206
ENCODING 8710
SWIDTH 617 0
DWIDTH 12 0
BBX 10 13 1 0
BITMAP
1C00
1E00
1600
3600
3300
3300
6300
6180
6180
C180
C0C0
FFC0
FFC0
ENDCHAR
STARTCHAR 220F
ENCODING 8719
SWIDTH 617 0
DWIDTH 12 0
BBX 12 16 0 -2
BITMAP
FFF0
FFF0
30C0
30C0
30C0
30C0
30C0
30C0
30C0
30C0
30C0
30C0
30C0
30C0
30C0
30C0
ENDCHAR
STARTCHAR 2211
ENCODING 8721
SWIDTH 617 0
DWIDTH 12 0
BBX 10 16 1 -2
BITMAP
FFC0
FFC0
6000
7000
3800
1C00
0C00
0600
0600
0C00
1800
3000
7000
6000
FFC0
FFC0
ENDCHAR
STARTCHAR 2212
ENCODING 8722
SWIDTH 617 0
DWIDTH 12 0
BBX 10 2 1 4
BITMAP
FFC0
FFC0
ENDCHAR
STARTCHAR 2215
ENCODING 8725
SWIDTH 617 0
DWIDTH 12 0
BBX 9 13 1 0
BITMAP
0080
0100
0100
0200
0600
0400
0800
0800
1000
3000
2000
4000
C000
ENDCHAR
STARTCHAR 2219
ENCODING 8729
SWIDTH 617 0
DWIDTH 12 0
BBX 2 2 5 5
BITMAP
C0
C0
ENDCHAR
STARTCHAR 221A
ENCODING 8730
SWIDTH 617 0
DWIDTH 12 0
BBX 11 19 0 -3
BITMAP
0020
0060
0060
0040
0040
00C0
00C0
00C0
1080
F080
7180
1980
1980
1900
0D00
0F00
0F00
0600
0600
ENDCHAR
STARTCHAR 221E
ENCODING 8734
SWIDTH 617 0
DWIDTH 12 0
BBX 11 7 0 2
BITMAP
30C0
7960
4620
C420
4620
6B60
30C0
ENDCHAR
STARTCHAR 222B
ENCODING 8747
SWIDTH 617 0
DWIDTH 12 0
BBX 4 20 4 -5
BITMAP
10
60
40
40
40
40
40
40
60
60
60
60
60
60
60
60
60
60
60
C0
ENDCHAR
STARTCHAR 2248
ENCODING 8776
SWIDTH 617 0
DWIDTH 12 0
BBX 11 8 0 1
BITMAP
0020
7C20
C7E0
8080
0020
7C20
C7E0
8180
ENDCHAR
STARTCHAR 2260
ENCODING 8800
SWIDTH 617 0
DWIDTH 12 0
BBX 10 10 1 0
BITMAP
0180
0300
FFC0
FFC0
0C00
0800
FFC0
FFC0
2000
6000
ENDCHAR
STARTCHAR 2264
ENCODING 8804
SWIDTH 617 0
DWIDTH 12 0
BBX 10 10 1 0
BITMAP
00C0
0FC0
7C00
E000
E000
7E00
07C0
00C0
FFC0
FFC0
ENDCHAR
STARTCHAR 2265
ENCODING 8805
SWIDTH 617 0
DWIDTH 12 0
BBX 10 10 1 0
BITMAP
C000
F800
1F80
01C0
03C0
1F00
F800
C000
FFC0
FFC0
ENDCHAR
STARTCHAR 25CA
ENCODING 9674
SWIDTH 617 0
DWIDTH 12 0
BBX 8 13 2 0
BITMAP
38
3C
64
66
C2
C3
83
C3
46
66
2C
3C
18
ENDCHAR
STARTCHAR 27E8
ENCODING 10216
SWIDTH 617 0
DWIDTH 12 0
BBX 6 13 3 -1
BITMAP
0C
18
10
20
60
40
C0
40
60
30
10
08
0C
ENDCHAR
STARTCHAR 27E9
ENCODING 10217
SWIDTH 617 0
DWIDTH 12 0
BBX 6 13 3 -1
BITMAP
C0
40
20
30
10
18
0C
18
10
30
60
40
80
ENDCHAR
STARTCHAR FB01
ENCODING 64257
SWIDTH 617 0
DWIDTH 12 0
BBX 10 14 0 0
BITMAP
1DC0
31C0
3000
3000
FF80
FF80
3180
3180
3180
3180
3180
3180
3180
3180
ENDCHAR
STARTCHAR FB02
ENCODING 64258
SWIDTH 617 0
DWIDTH 12 0
BBX 9 14 0 0
BITMAP
1D80
3180
3180
3180
FD80
FD80
3180
3180
3180
3180
3180
3180
3180
3180
ENDCHAR
STARTCHAR FEFF
ENCODING 65279
SWIDTH 0 0
DWIDTH 0 0
BBX 0 0 0 0
BITMAP
ENDCHAR
ENDFONT
